<?xml version="1.0" encoding="utf-8" standalone="no"?>
<!DOCTYPE svg PUBLIC "-//W3C//DTD SVG 1.1//EN"
  "http://www.w3.org/Graphics/SVG/1.1/DTD/svg11.dtd">
<svg height="238.952775pt" version="1.1" viewBox="0 0 296.949625 238.952775" width="296.949625pt" xmlns="http://www.w3.org/2000/svg" xmlns:xlink="http://www.w3.org/1999/xlink">
 <metadata>
  <rdf:RDF xmlns:cc="http://creativecommons.org/ns#" xmlns:dc="http://purl.org/dc/elements/1.1/" xmlns:rdf="http://www.w3.org/1999/02/22-rdf-syntax-ns#">
   <cc:Work>
    <dc:type rdf:resource="http://purl.org/dc/dcmitype/StillImage"/>
    <dc:date>2022-09-29T00:19:46.156128</dc:date>
    <dc:format>image/svg+xml</dc:format>
    <dc:creator>
     <cc:Agent>
      <dc:title>Matplotlib v3.4.2, https://matplotlib.org/</dc:title>
     </cc:Agent>
    </dc:creator>
   </cc:Work>
  </rdf:RDF>
 </metadata>
 <defs>
  <style type="text/css">*{stroke-linecap:butt;stroke-linejoin:round;}</style>
 </defs>
 <g id="figure_1">
  <g id="patch_1">
   <path d="M -0 238.952775 
L 296.949625 238.952775 
L 296.949625 0 
L -0 0 
z
" style="fill:#ffffff;"/>
  </g>
  <g id="axes_1">
   <g id="patch_2">
    <path d="M 43.365625 204.996525 
L 293.349625 204.996525 
L 293.349625 18.718125 
L 43.365625 18.718125 
z
" style="fill:#ffffff;"/>
   </g>
   <g id="line2d_1">
    <path clip-path="url(#pa5ae2840c4)" d="M -1 47.201994 
L 279.145989 47.201994 
" style="fill:none;stroke:#87ceeb;stroke-dasharray:1.5,2.475;stroke-dashoffset:0;stroke-width:1.5;"/>
   </g>
   <g id="matplotlib.axis_1">
    <g id="xtick_1">
     <g id="line2d_2">
      <path clip-path="url(#pa5ae2840c4)" d="M 80.657911 204.996525 
L 80.657911 18.718125 
" style="fill:none;stroke:#b0b0b0;stroke-linecap:square;stroke-width:0.8;"/>
     </g>
     <g id="line2d_3">
      <defs>
       <path d="M 0 0 
L 0 3.5 
" id="ma47ed03952" style="stroke:#000000;stroke-width:0.8;"/>
      </defs>
      <g>
       <use style="stroke:#000000;stroke-width:0.8;" x="80.657911" xlink:href="#ma47ed03952" y="204.996525"/>
      </g>
     </g>
     <g id="text_1">
      <!-- 30 -->
      <g transform="translate(74.295411 219.594962)scale(0.1 -0.1)">
       <defs>
        <path d="M 2597 2516 
Q 3050 2419 3304 2112 
Q 3559 1806 3559 1356 
Q 3559 666 3084 287 
Q 2609 -91 1734 -91 
Q 1441 -91 1130 -33 
Q 819 25 488 141 
L 488 750 
Q 750 597 1062 519 
Q 1375 441 1716 441 
Q 2309 441 2620 675 
Q 2931 909 2931 1356 
Q 2931 1769 2642 2001 
Q 2353 2234 1838 2234 
L 1294 2234 
L 1294 2753 
L 1863 2753 
Q 2328 2753 2575 2939 
Q 2822 3125 2822 3475 
Q 2822 3834 2567 4026 
Q 2313 4219 1838 4219 
Q 1578 4219 1281 4162 
Q 984 4106 628 3988 
L 628 4550 
Q 988 4650 1302 4700 
Q 1616 4750 1894 4750 
Q 2613 4750 3031 4423 
Q 3450 4097 3450 3541 
Q 3450 3153 3228 2886 
Q 3006 2619 2597 2516 
z
" id="DejaVuSans-33" transform="scale(0.015625)"/>
        <path d="M 2034 4250 
Q 1547 4250 1301 3770 
Q 1056 3291 1056 2328 
Q 1056 1369 1301 889 
Q 1547 409 2034 409 
Q 2525 409 2770 889 
Q 3016 1369 3016 2328 
Q 3016 3291 2770 3770 
Q 2525 4250 2034 4250 
z
M 2034 4750 
Q 2819 4750 3233 4129 
Q 3647 3509 3647 2328 
Q 3647 1150 3233 529 
Q 2819 -91 2034 -91 
Q 1250 -91 836 529 
Q 422 1150 422 2328 
Q 422 3509 836 4129 
Q 1250 4750 2034 4750 
z
" id="DejaVuSans-30" transform="scale(0.015625)"/>
       </defs>
       <use xlink:href="#DejaVuSans-33"/>
       <use x="63.623047" xlink:href="#DejaVuSans-30"/>
      </g>
     </g>
    </g>
    <g id="xtick_2">
     <g id="line2d_4">
      <path clip-path="url(#pa5ae2840c4)" d="M 121.633832 204.996525 
L 121.633832 18.718125 
" style="fill:none;stroke:#b0b0b0;stroke-linecap:square;stroke-width:0.8;"/>
     </g>
     <g id="line2d_5">
      <g>
       <use style="stroke:#000000;stroke-width:0.8;" x="121.633832" xlink:href="#ma47ed03952" y="204.996525"/>
      </g>
     </g>
     <g id="text_2">
      <!-- 40 -->
      <g transform="translate(115.271332 219.594962)scale(0.1 -0.1)">
       <defs>
        <path d="M 2419 4116 
L 825 1625 
L 2419 1625 
L 2419 4116 
z
M 2253 4666 
L 3047 4666 
L 3047 1625 
L 3713 1625 
L 3713 1100 
L 3047 1100 
L 3047 0 
L 2419 0 
L 2419 1100 
L 313 1100 
L 313 1709 
L 2253 4666 
z
" id="DejaVuSans-34" transform="scale(0.015625)"/>
       </defs>
       <use xlink:href="#DejaVuSans-34"/>
       <use x="63.623047" xlink:href="#DejaVuSans-30"/>
      </g>
     </g>
    </g>
    <g id="xtick_3">
     <g id="line2d_6">
      <path clip-path="url(#pa5ae2840c4)" d="M 162.609753 204.996525 
L 162.609753 18.718125 
" style="fill:none;stroke:#b0b0b0;stroke-linecap:square;stroke-width:0.8;"/>
     </g>
     <g id="line2d_7">
      <g>
       <use style="stroke:#000000;stroke-width:0.8;" x="162.609753" xlink:href="#ma47ed03952" y="204.996525"/>
      </g>
     </g>
     <g id="text_3">
      <!-- 50 -->
      <g transform="translate(156.247253 219.594962)scale(0.1 -0.1)">
       <defs>
        <path d="M 691 4666 
L 3169 4666 
L 3169 4134 
L 1269 4134 
L 1269 2991 
Q 1406 3038 1543 3061 
Q 1681 3084 1819 3084 
Q 2600 3084 3056 2656 
Q 3513 2228 3513 1497 
Q 3513 744 3044 326 
Q 2575 -91 1722 -91 
Q 1428 -91 1123 -41 
Q 819 9 494 109 
L 494 744 
Q 775 591 1075 516 
Q 1375 441 1709 441 
Q 2250 441 2565 725 
Q 2881 1009 2881 1497 
Q 2881 1984 2565 2268 
Q 2250 2553 1709 2553 
Q 1456 2553 1204 2497 
Q 953 2441 691 2322 
L 691 4666 
z
" id="DejaVuSans-35" transform="scale(0.015625)"/>
       </defs>
       <use xlink:href="#DejaVuSans-35"/>
       <use x="63.623047" xlink:href="#DejaVuSans-30"/>
      </g>
     </g>
    </g>
    <g id="xtick_4">
     <g id="line2d_8">
      <path clip-path="url(#pa5ae2840c4)" d="M 203.585674 204.996525 
L 203.585674 18.718125 
" style="fill:none;stroke:#b0b0b0;stroke-linecap:square;stroke-width:0.8;"/>
     </g>
     <g id="line2d_9">
      <g>
       <use style="stroke:#000000;stroke-width:0.8;" x="203.585674" xlink:href="#ma47ed03952" y="204.996525"/>
      </g>
     </g>
     <g id="text_4">
      <!-- 60 -->
      <g transform="translate(197.223174 219.594962)scale(0.1 -0.1)">
       <defs>
        <path d="M 2113 2584 
Q 1688 2584 1439 2293 
Q 1191 2003 1191 1497 
Q 1191 994 1439 701 
Q 1688 409 2113 409 
Q 2538 409 2786 701 
Q 3034 994 3034 1497 
Q 3034 2003 2786 2293 
Q 2538 2584 2113 2584 
z
M 3366 4563 
L 3366 3988 
Q 3128 4100 2886 4159 
Q 2644 4219 2406 4219 
Q 1781 4219 1451 3797 
Q 1122 3375 1075 2522 
Q 1259 2794 1537 2939 
Q 1816 3084 2150 3084 
Q 2853 3084 3261 2657 
Q 3669 2231 3669 1497 
Q 3669 778 3244 343 
Q 2819 -91 2113 -91 
Q 1303 -91 875 529 
Q 447 1150 447 2328 
Q 447 3434 972 4092 
Q 1497 4750 2381 4750 
Q 2619 4750 2861 4703 
Q 3103 4656 3366 4563 
z
" id="DejaVuSans-36" transform="scale(0.015625)"/>
       </defs>
       <use xlink:href="#DejaVuSans-36"/>
       <use x="63.623047" xlink:href="#DejaVuSans-30"/>
      </g>
     </g>
    </g>
    <g id="xtick_5">
     <g id="line2d_10">
      <path clip-path="url(#pa5ae2840c4)" d="M 244.561595 204.996525 
L 244.561595 18.718125 
" style="fill:none;stroke:#b0b0b0;stroke-linecap:square;stroke-width:0.8;"/>
     </g>
     <g id="line2d_11">
      <g>
       <use style="stroke:#000000;stroke-width:0.8;" x="244.561595" xlink:href="#ma47ed03952" y="204.996525"/>
      </g>
     </g>
     <g id="text_5">
      <!-- 70 -->
      <g transform="translate(238.199095 219.594962)scale(0.1 -0.1)">
       <defs>
        <path d="M 525 4666 
L 3525 4666 
L 3525 4397 
L 1831 0 
L 1172 0 
L 2766 4134 
L 525 4134 
L 525 4666 
z
" id="DejaVuSans-37" transform="scale(0.015625)"/>
       </defs>
       <use xlink:href="#DejaVuSans-37"/>
       <use x="63.623047" xlink:href="#DejaVuSans-30"/>
      </g>
     </g>
    </g>
    <g id="xtick_6">
     <g id="line2d_12">
      <path clip-path="url(#pa5ae2840c4)" d="M 285.537516 204.996525 
L 285.537516 18.718125 
" style="fill:none;stroke:#b0b0b0;stroke-linecap:square;stroke-width:0.8;"/>
     </g>
     <g id="line2d_13">
      <g>
       <use style="stroke:#000000;stroke-width:0.8;" x="285.537516" xlink:href="#ma47ed03952" y="204.996525"/>
      </g>
     </g>
     <g id="text_6">
      <!-- 80 -->
      <g transform="translate(279.175016 219.594962)scale(0.1 -0.1)">
       <defs>
        <path d="M 2034 2216 
Q 1584 2216 1326 1975 
Q 1069 1734 1069 1313 
Q 1069 891 1326 650 
Q 1584 409 2034 409 
Q 2484 409 2743 651 
Q 3003 894 3003 1313 
Q 3003 1734 2745 1975 
Q 2488 2216 2034 2216 
z
M 1403 2484 
Q 997 2584 770 2862 
Q 544 3141 544 3541 
Q 544 4100 942 4425 
Q 1341 4750 2034 4750 
Q 2731 4750 3128 4425 
Q 3525 4100 3525 3541 
Q 3525 3141 3298 2862 
Q 3072 2584 2669 2484 
Q 3125 2378 3379 2068 
Q 3634 1759 3634 1313 
Q 3634 634 3220 271 
Q 2806 -91 2034 -91 
Q 1263 -91 848 271 
Q 434 634 434 1313 
Q 434 1759 690 2068 
Q 947 2378 1403 2484 
z
M 1172 3481 
Q 1172 3119 1398 2916 
Q 1625 2713 2034 2713 
Q 2441 2713 2670 2916 
Q 2900 3119 2900 3481 
Q 2900 3844 2670 4047 
Q 2441 4250 2034 4250 
Q 1625 4250 1398 4047 
Q 1172 3844 1172 3481 
z
" id="DejaVuSans-38" transform="scale(0.015625)"/>
       </defs>
       <use xlink:href="#DejaVuSans-38"/>
       <use x="63.623047" xlink:href="#DejaVuSans-30"/>
      </g>
     </g>
    </g>
    <g id="text_7">
     <!-- Relative FLOPs (%) -->
     <g transform="translate(121.414656 233.273087)scale(0.1 -0.1)">
      <defs>
       <path d="M 2841 2188 
Q 3044 2119 3236 1894 
Q 3428 1669 3622 1275 
L 4263 0 
L 3584 0 
L 2988 1197 
Q 2756 1666 2539 1819 
Q 2322 1972 1947 1972 
L 1259 1972 
L 1259 0 
L 628 0 
L 628 4666 
L 2053 4666 
Q 2853 4666 3247 4331 
Q 3641 3997 3641 3322 
Q 3641 2881 3436 2590 
Q 3231 2300 2841 2188 
z
M 1259 4147 
L 1259 2491 
L 2053 2491 
Q 2509 2491 2742 2702 
Q 2975 2913 2975 3322 
Q 2975 3731 2742 3939 
Q 2509 4147 2053 4147 
L 1259 4147 
z
" id="DejaVuSans-52" transform="scale(0.015625)"/>
       <path d="M 3597 1894 
L 3597 1613 
L 953 1613 
Q 991 1019 1311 708 
Q 1631 397 2203 397 
Q 2534 397 2845 478 
Q 3156 559 3463 722 
L 3463 178 
Q 3153 47 2828 -22 
Q 2503 -91 2169 -91 
Q 1331 -91 842 396 
Q 353 884 353 1716 
Q 353 2575 817 3079 
Q 1281 3584 2069 3584 
Q 2775 3584 3186 3129 
Q 3597 2675 3597 1894 
z
M 3022 2063 
Q 3016 2534 2758 2815 
Q 2500 3097 2075 3097 
Q 1594 3097 1305 2825 
Q 1016 2553 972 2059 
L 3022 2063 
z
" id="DejaVuSans-65" transform="scale(0.015625)"/>
       <path d="M 603 4863 
L 1178 4863 
L 1178 0 
L 603 0 
L 603 4863 
z
" id="DejaVuSans-6c" transform="scale(0.015625)"/>
       <path d="M 2194 1759 
Q 1497 1759 1228 1600 
Q 959 1441 959 1056 
Q 959 750 1161 570 
Q 1363 391 1709 391 
Q 2188 391 2477 730 
Q 2766 1069 2766 1631 
L 2766 1759 
L 2194 1759 
z
M 3341 1997 
L 3341 0 
L 2766 0 
L 2766 531 
Q 2569 213 2275 61 
Q 1981 -91 1556 -91 
Q 1019 -91 701 211 
Q 384 513 384 1019 
Q 384 1609 779 1909 
Q 1175 2209 1959 2209 
L 2766 2209 
L 2766 2266 
Q 2766 2663 2505 2880 
Q 2244 3097 1772 3097 
Q 1472 3097 1187 3025 
Q 903 2953 641 2809 
L 641 3341 
Q 956 3463 1253 3523 
Q 1550 3584 1831 3584 
Q 2591 3584 2966 3190 
Q 3341 2797 3341 1997 
z
" id="DejaVuSans-61" transform="scale(0.015625)"/>
       <path d="M 1172 4494 
L 1172 3500 
L 2356 3500 
L 2356 3053 
L 1172 3053 
L 1172 1153 
Q 1172 725 1289 603 
Q 1406 481 1766 481 
L 2356 481 
L 2356 0 
L 1766 0 
Q 1100 0 847 248 
Q 594 497 594 1153 
L 594 3053 
L 172 3053 
L 172 3500 
L 594 3500 
L 594 4494 
L 1172 4494 
z
" id="DejaVuSans-74" transform="scale(0.015625)"/>
       <path d="M 603 3500 
L 1178 3500 
L 1178 0 
L 603 0 
L 603 3500 
z
M 603 4863 
L 1178 4863 
L 1178 4134 
L 603 4134 
L 603 4863 
z
" id="DejaVuSans-69" transform="scale(0.015625)"/>
       <path d="M 191 3500 
L 800 3500 
L 1894 563 
L 2988 3500 
L 3597 3500 
L 2284 0 
L 1503 0 
L 191 3500 
z
" id="DejaVuSans-76" transform="scale(0.015625)"/>
       <path id="DejaVuSans-20" transform="scale(0.015625)"/>
       <path d="M 628 4666 
L 3309 4666 
L 3309 4134 
L 1259 4134 
L 1259 2759 
L 3109 2759 
L 3109 2228 
L 1259 2228 
L 1259 0 
L 628 0 
L 628 4666 
z
" id="DejaVuSans-46" transform="scale(0.015625)"/>
       <path d="M 628 4666 
L 1259 4666 
L 1259 531 
L 3531 531 
L 3531 0 
L 628 0 
L 628 4666 
z
" id="DejaVuSans-4c" transform="scale(0.015625)"/>
       <path d="M 2522 4238 
Q 1834 4238 1429 3725 
Q 1025 3213 1025 2328 
Q 1025 1447 1429 934 
Q 1834 422 2522 422 
Q 3209 422 3611 934 
Q 4013 1447 4013 2328 
Q 4013 3213 3611 3725 
Q 3209 4238 2522 4238 
z
M 2522 4750 
Q 3503 4750 4090 4092 
Q 4678 3434 4678 2328 
Q 4678 1225 4090 567 
Q 3503 -91 2522 -91 
Q 1538 -91 948 565 
Q 359 1222 359 2328 
Q 359 3434 948 4092 
Q 1538 4750 2522 4750 
z
" id="DejaVuSans-4f" transform="scale(0.015625)"/>
       <path d="M 1259 4147 
L 1259 2394 
L 2053 2394 
Q 2494 2394 2734 2622 
Q 2975 2850 2975 3272 
Q 2975 3691 2734 3919 
Q 2494 4147 2053 4147 
L 1259 4147 
z
M 628 4666 
L 2053 4666 
Q 2838 4666 3239 4311 
Q 3641 3956 3641 3272 
Q 3641 2581 3239 2228 
Q 2838 1875 2053 1875 
L 1259 1875 
L 1259 0 
L 628 0 
L 628 4666 
z
" id="DejaVuSans-50" transform="scale(0.015625)"/>
       <path d="M 2834 3397 
L 2834 2853 
Q 2591 2978 2328 3040 
Q 2066 3103 1784 3103 
Q 1356 3103 1142 2972 
Q 928 2841 928 2578 
Q 928 2378 1081 2264 
Q 1234 2150 1697 2047 
L 1894 2003 
Q 2506 1872 2764 1633 
Q 3022 1394 3022 966 
Q 3022 478 2636 193 
Q 2250 -91 1575 -91 
Q 1294 -91 989 -36 
Q 684 19 347 128 
L 347 722 
Q 666 556 975 473 
Q 1284 391 1588 391 
Q 1994 391 2212 530 
Q 2431 669 2431 922 
Q 2431 1156 2273 1281 
Q 2116 1406 1581 1522 
L 1381 1569 
Q 847 1681 609 1914 
Q 372 2147 372 2553 
Q 372 3047 722 3315 
Q 1072 3584 1716 3584 
Q 2034 3584 2315 3537 
Q 2597 3491 2834 3397 
z
" id="DejaVuSans-73" transform="scale(0.015625)"/>
       <path d="M 1984 4856 
Q 1566 4138 1362 3434 
Q 1159 2731 1159 2009 
Q 1159 1288 1364 580 
Q 1569 -128 1984 -844 
L 1484 -844 
Q 1016 -109 783 600 
Q 550 1309 550 2009 
Q 550 2706 781 3412 
Q 1013 4119 1484 4856 
L 1984 4856 
z
" id="DejaVuSans-28" transform="scale(0.015625)"/>
       <path d="M 4653 2053 
Q 4381 2053 4226 1822 
Q 4072 1591 4072 1178 
Q 4072 772 4226 539 
Q 4381 306 4653 306 
Q 4919 306 5073 539 
Q 5228 772 5228 1178 
Q 5228 1588 5073 1820 
Q 4919 2053 4653 2053 
z
M 4653 2450 
Q 5147 2450 5437 2106 
Q 5728 1763 5728 1178 
Q 5728 594 5436 251 
Q 5144 -91 4653 -91 
Q 4153 -91 3862 251 
Q 3572 594 3572 1178 
Q 3572 1766 3864 2108 
Q 4156 2450 4653 2450 
z
M 1428 4353 
Q 1159 4353 1004 4120 
Q 850 3888 850 3481 
Q 850 3069 1003 2837 
Q 1156 2606 1428 2606 
Q 1700 2606 1854 2837 
Q 2009 3069 2009 3481 
Q 2009 3884 1853 4118 
Q 1697 4353 1428 4353 
z
M 4250 4750 
L 4750 4750 
L 1831 -91 
L 1331 -91 
L 4250 4750 
z
M 1428 4750 
Q 1922 4750 2215 4408 
Q 2509 4066 2509 3481 
Q 2509 2891 2217 2550 
Q 1925 2209 1428 2209 
Q 931 2209 642 2551 
Q 353 2894 353 3481 
Q 353 4063 643 4406 
Q 934 4750 1428 4750 
z
" id="DejaVuSans-25" transform="scale(0.015625)"/>
       <path d="M 513 4856 
L 1013 4856 
Q 1481 4119 1714 3412 
Q 1947 2706 1947 2009 
Q 1947 1309 1714 600 
Q 1481 -109 1013 -844 
L 513 -844 
Q 928 -128 1133 580 
Q 1338 1288 1338 2009 
Q 1338 2731 1133 3434 
Q 928 4138 513 4856 
z
" id="DejaVuSans-29" transform="scale(0.015625)"/>
      </defs>
      <use xlink:href="#DejaVuSans-52"/>
      <use x="64.982422" xlink:href="#DejaVuSans-65"/>
      <use x="126.505859" xlink:href="#DejaVuSans-6c"/>
      <use x="154.289062" xlink:href="#DejaVuSans-61"/>
      <use x="215.568359" xlink:href="#DejaVuSans-74"/>
      <use x="254.777344" xlink:href="#DejaVuSans-69"/>
      <use x="282.560547" xlink:href="#DejaVuSans-76"/>
      <use x="341.740234" xlink:href="#DejaVuSans-65"/>
      <use x="403.263672" xlink:href="#DejaVuSans-20"/>
      <use x="435.050781" xlink:href="#DejaVuSans-46"/>
      <use x="492.570312" xlink:href="#DejaVuSans-4c"/>
      <use x="544.658203" xlink:href="#DejaVuSans-4f"/>
      <use x="623.369141" xlink:href="#DejaVuSans-50"/>
      <use x="681.921875" xlink:href="#DejaVuSans-73"/>
      <use x="734.021484" xlink:href="#DejaVuSans-20"/>
      <use x="765.808594" xlink:href="#DejaVuSans-28"/>
      <use x="804.822266" xlink:href="#DejaVuSans-25"/>
      <use x="899.841797" xlink:href="#DejaVuSans-29"/>
     </g>
    </g>
   </g>
   <g id="matplotlib.axis_2">
    <g id="ytick_1">
     <g id="line2d_14">
      <path clip-path="url(#pa5ae2840c4)" d="M 43.365625 176.925056 
L 293.349625 176.925056 
" style="fill:none;stroke:#b0b0b0;stroke-linecap:square;stroke-width:0.8;"/>
     </g>
     <g id="line2d_15">
      <defs>
       <path d="M 0 0 
L -3.5 0 
" id="mfe7e045fdc" style="stroke:#000000;stroke-width:0.8;"/>
      </defs>
      <g>
       <use style="stroke:#000000;stroke-width:0.8;" x="43.365625" xlink:href="#mfe7e045fdc" y="176.925056"/>
      </g>
     </g>
     <g id="text_8">
      <!-- 96 -->
      <g transform="translate(23.640625 180.724275)scale(0.1 -0.1)">
       <defs>
        <path d="M 703 97 
L 703 672 
Q 941 559 1184 500 
Q 1428 441 1663 441 
Q 2288 441 2617 861 
Q 2947 1281 2994 2138 
Q 2813 1869 2534 1725 
Q 2256 1581 1919 1581 
Q 1219 1581 811 2004 
Q 403 2428 403 3163 
Q 403 3881 828 4315 
Q 1253 4750 1959 4750 
Q 2769 4750 3195 4129 
Q 3622 3509 3622 2328 
Q 3622 1225 3098 567 
Q 2575 -91 1691 -91 
Q 1453 -91 1209 -44 
Q 966 3 703 97 
z
M 1959 2075 
Q 2384 2075 2632 2365 
Q 2881 2656 2881 3163 
Q 2881 3666 2632 3958 
Q 2384 4250 1959 4250 
Q 1534 4250 1286 3958 
Q 1038 3666 1038 3163 
Q 1038 2656 1286 2365 
Q 1534 2075 1959 2075 
z
" id="DejaVuSans-39" transform="scale(0.015625)"/>
       </defs>
       <use xlink:href="#DejaVuSans-39"/>
       <use x="63.623047" xlink:href="#DejaVuSans-36"/>
      </g>
     </g>
    </g>
    <g id="ytick_2">
     <g id="line2d_16">
      <path clip-path="url(#pa5ae2840c4)" d="M 43.365625 144.494291 
L 293.349625 144.494291 
" style="fill:none;stroke:#b0b0b0;stroke-linecap:square;stroke-width:0.8;"/>
     </g>
     <g id="line2d_17">
      <g>
       <use style="stroke:#000000;stroke-width:0.8;" x="43.365625" xlink:href="#mfe7e045fdc" y="144.494291"/>
      </g>
     </g>
     <g id="text_9">
      <!-- 97 -->
      <g transform="translate(23.640625 148.293509)scale(0.1 -0.1)">
       <use xlink:href="#DejaVuSans-39"/>
       <use x="63.623047" xlink:href="#DejaVuSans-37"/>
      </g>
     </g>
    </g>
    <g id="ytick_3">
     <g id="line2d_18">
      <path clip-path="url(#pa5ae2840c4)" d="M 43.365625 112.063525 
L 293.349625 112.063525 
" style="fill:none;stroke:#b0b0b0;stroke-linecap:square;stroke-width:0.8;"/>
     </g>
     <g id="line2d_19">
      <g>
       <use style="stroke:#000000;stroke-width:0.8;" x="43.365625" xlink:href="#mfe7e045fdc" y="112.063525"/>
      </g>
     </g>
     <g id="text_10">
      <!-- 98 -->
      <g transform="translate(23.640625 115.862744)scale(0.1 -0.1)">
       <use xlink:href="#DejaVuSans-39"/>
       <use x="63.623047" xlink:href="#DejaVuSans-38"/>
      </g>
     </g>
    </g>
    <g id="ytick_4">
     <g id="line2d_20">
      <path clip-path="url(#pa5ae2840c4)" d="M 43.365625 79.632759 
L 293.349625 79.632759 
" style="fill:none;stroke:#b0b0b0;stroke-linecap:square;stroke-width:0.8;"/>
     </g>
     <g id="line2d_21">
      <g>
       <use style="stroke:#000000;stroke-width:0.8;" x="43.365625" xlink:href="#mfe7e045fdc" y="79.632759"/>
      </g>
     </g>
     <g id="text_11">
      <!-- 99 -->
      <g transform="translate(23.640625 83.431978)scale(0.1 -0.1)">
       <use xlink:href="#DejaVuSans-39"/>
       <use x="63.623047" xlink:href="#DejaVuSans-39"/>
      </g>
     </g>
    </g>
    <g id="ytick_5">
     <g id="line2d_22">
      <path clip-path="url(#pa5ae2840c4)" d="M 43.365625 47.201994 
L 293.349625 47.201994 
" style="fill:none;stroke:#b0b0b0;stroke-linecap:square;stroke-width:0.8;"/>
     </g>
     <g id="line2d_23">
      <g>
       <use style="stroke:#000000;stroke-width:0.8;" x="43.365625" xlink:href="#mfe7e045fdc" y="47.201994"/>
      </g>
     </g>
     <g id="text_12">
      <!-- 100 -->
      <g transform="translate(17.278125 51.001212)scale(0.1 -0.1)">
       <defs>
        <path d="M 794 531 
L 1825 531 
L 1825 4091 
L 703 3866 
L 703 4441 
L 1819 4666 
L 2450 4666 
L 2450 531 
L 3481 531 
L 3481 0 
L 794 0 
L 794 531 
z
" id="DejaVuSans-31" transform="scale(0.015625)"/>
       </defs>
       <use xlink:href="#DejaVuSans-31"/>
       <use x="63.623047" xlink:href="#DejaVuSans-30"/>
       <use x="127.246094" xlink:href="#DejaVuSans-30"/>
      </g>
     </g>
    </g>
    <g id="text_13">
     <!-- Relative Metric (%) -->
     <g transform="translate(11.198438 159.396387)rotate(-90)scale(0.1 -0.1)">
      <defs>
       <path d="M 628 4666 
L 1569 4666 
L 2759 1491 
L 3956 4666 
L 4897 4666 
L 4897 0 
L 4281 0 
L 4281 4097 
L 3078 897 
L 2444 897 
L 1241 4097 
L 1241 0 
L 628 0 
L 628 4666 
z
" id="DejaVuSans-4d" transform="scale(0.015625)"/>
       <path d="M 2631 2963 
Q 2534 3019 2420 3045 
Q 2306 3072 2169 3072 
Q 1681 3072 1420 2755 
Q 1159 2438 1159 1844 
L 1159 0 
L 581 0 
L 581 3500 
L 1159 3500 
L 1159 2956 
Q 1341 3275 1631 3429 
Q 1922 3584 2338 3584 
Q 2397 3584 2469 3576 
Q 2541 3569 2628 3553 
L 2631 2963 
z
" id="DejaVuSans-72" transform="scale(0.015625)"/>
       <path d="M 3122 3366 
L 3122 2828 
Q 2878 2963 2633 3030 
Q 2388 3097 2138 3097 
Q 1578 3097 1268 2742 
Q 959 2388 959 1747 
Q 959 1106 1268 751 
Q 1578 397 2138 397 
Q 2388 397 2633 464 
Q 2878 531 3122 666 
L 3122 134 
Q 2881 22 2623 -34 
Q 2366 -91 2075 -91 
Q 1284 -91 818 406 
Q 353 903 353 1747 
Q 353 2603 823 3093 
Q 1294 3584 2113 3584 
Q 2378 3584 2631 3529 
Q 2884 3475 3122 3366 
z
" id="DejaVuSans-63" transform="scale(0.015625)"/>
      </defs>
      <use xlink:href="#DejaVuSans-52"/>
      <use x="64.982422" xlink:href="#DejaVuSans-65"/>
      <use x="126.505859" xlink:href="#DejaVuSans-6c"/>
      <use x="154.289062" xlink:href="#DejaVuSans-61"/>
      <use x="215.568359" xlink:href="#DejaVuSans-74"/>
      <use x="254.777344" xlink:href="#DejaVuSans-69"/>
      <use x="282.560547" xlink:href="#DejaVuSans-76"/>
      <use x="341.740234" xlink:href="#DejaVuSans-65"/>
      <use x="403.263672" xlink:href="#DejaVuSans-20"/>
      <use x="435.050781" xlink:href="#DejaVuSans-4d"/>
      <use x="521.330078" xlink:href="#DejaVuSans-65"/>
      <use x="582.853516" xlink:href="#DejaVuSans-74"/>
      <use x="622.0625" xlink:href="#DejaVuSans-72"/>
      <use x="663.175781" xlink:href="#DejaVuSans-69"/>
      <use x="690.958984" xlink:href="#DejaVuSans-63"/>
      <use x="745.939453" xlink:href="#DejaVuSans-20"/>
      <use x="777.726562" xlink:href="#DejaVuSans-28"/>
      <use x="816.740234" xlink:href="#DejaVuSans-25"/>
      <use x="911.759766" xlink:href="#DejaVuSans-29"/>
     </g>
    </g>
   </g>
   <g id="line2d_24">
    <path clip-path="url(#pa5ae2840c4)" d="M 56.807303 239.952775 
L 59.625091 225.347373 
L 63.847908 202.519772 
L 66.194439 190.804007 
L 69.95737 172.016442 
L 72.62737 160.484351 
L 78.146254 139.68376 
L 81.2007 131.431453 
L 85.962521 118.711042 
L 85.987191 118.6454 
L 86.085673 118.378148 
L 95.149359 94.218352 
L 95.71956 92.698446 
L 102.362373 81.571587 
L 109.42584 72.354716 
L 116.97018 62.141399 
L 119.000576 59.404975 
L 119.042225 59.386782 
L 120.151643 58.909218 
L 122.145148 58.062418 
L 123.973529 57.28576 
L 125.268261 56.840633 
L 133.584907 53.981387 
L 136.849734 53.009412 
L 148.70792 50.218113 
L 154.330145 49.699865 
L 155.391541 49.599823 
L 155.924432 49.548539 
L 156.911406 49.452678 
L 161.619796 48.995369 
L 163.309907 48.831215 
L 164.052397 48.770585 
L 170.179398 48.265195 
L 174.275876 47.828586 
L 202.259332 45.596993 
L 202.95192 45.542391 
L 203.194463 45.52327 
L 203.232155 45.520298 
L 205.870281 45.311769 
L 205.989389 45.302354 
L 206.861767 45.299742 
L 208.707954 45.299787 
L 212.03126 45.390384 
L 249.911426 46.827684 
L 250.214418 46.793829 
L 250.562057 46.808534 
L 251.146571 46.776225 
L 251.756049 46.732698 
L 252.328775 46.664269 
L 253.641297 46.612092 
L 257.224603 46.846777 
L 259.615362 47.201994 
" style="fill:none;stroke:#00ff00;stroke-linecap:square;stroke-width:1.5;"/>
   </g>
   <g id="line2d_25">
    <path clip-path="url(#pa5ae2840c4)" d="M 76.594669 239.952775 
L 79.289973 225.982249 
L 83.378535 203.880401 
L 86.188151 189.852543 
L 89.794617 171.846174 
L 92.292252 161.058554 
L 98.102026 139.161598 
L 101.814476 129.131539 
L 106.065835 117.774744 
L 106.590874 116.377712 
L 106.913802 115.534008 
L 115.14307 93.5984 
L 115.250187 93.312876 
L 122.19962 81.67242 
L 129.090722 72.680463 
L 137.583957 61.182559 
L 138.956348 59.332946 
L 139.547426 59.074752 
L 140.254957 58.770186 
L 143.071759 57.573667 
L 143.504155 57.389994 
L 145.261973 56.785659 
L 153.422154 53.980205 
L 156.514615 53.059546 
L 168.663693 50.199773 
L 174.943921 49.620872 
L 175.896742 49.531064 
L 176.027746 49.518456 
L 177.838017 49.342631 
L 181.613507 48.975932 
L 183.147154 48.826974 
L 183.583024 48.791382 
L 189.84428 48.274918 
L 194.231648 47.807305 
L 222.873109 45.523238 
L 223.335469 45.486787 
L 223.457121 45.477171 
L 224.121074 45.424689 
L 225.520016 45.314111 
L 225.863993 45.313081 
L 226.699014 45.310581 
L 228.663727 45.310628 
L 231.696141 45.393295 
L 270.828195 46.878096 
L 270.838037 46.887077 
L 271.067258 46.853272 
L 271.249885 46.805546 
L 271.749761 46.760397 
L 272.284547 46.695653 
L 273.478544 46.642463 
L 276.889484 46.866725 
L 279.145989 47.201994 
" style="fill:none;stroke:#00ff00;stroke-dasharray:5.55,2.4;stroke-dashoffset:0;stroke-width:1.5;"/>
   </g>
   <g id="line2d_26">
    <path clip-path="url(#pa5ae2840c4)" d="M 84.873519 239.952775 
L 86.080064 235.258848 
L 92.819216 206.867456 
L 98.336416 185.505897 
L 106.311389 158.025408 
L 108.927873 149.53261 
L 109.280081 148.426912 
L 109.491975 147.92863 
L 110.272484 146.162951 
L 110.868311 145.113492 
L 114.012176 138.875419 
L 121.604552 126.259251 
L 124.057539 122.422236 
L 136.896131 103.468172 
L 141.11427 97.69251 
L 142.190335 96.273817 
L 142.789614 95.531304 
L 143.349786 94.846634 
L 146.935816 91.304675 
L 148.13849 89.484539 
L 149.003835 88.365917 
L 155.416417 80.337039 
L 161.034944 74.018283 
L 185.397875 53.614467 
L 185.946246 53.460799 
L 186.628936 53.275581 
L 186.781149 53.234497 
L 186.879986 53.21342 
L 188.953044 52.788028 
L 189.396936 52.598966 
L 192.083393 51.498268 
L 194.31205 50.86569 
L 231.418523 42.708525 
L 231.914184 52.130772 
L 232.299799 52.580863 
L 232.834751 53.342199 
L 233.511857 54.390422 
L 234.279274 55.907777 
L 235.522368 59.013579 
L 238.198825 61.125917 
L 242.62627 63.643285 
" style="fill:none;stroke:#000000;stroke-dasharray:5.55,2.4;stroke-dashoffset:0;stroke-width:1.5;"/>
   </g>
   <g id="patch_3">
    <path d="M 43.365625 204.996525 
L 43.365625 18.718125 
" style="fill:none;stroke:#000000;stroke-linecap:square;stroke-linejoin:miter;stroke-width:0.8;"/>
   </g>
   <g id="patch_4">
    <path d="M 293.349625 204.996525 
L 293.349625 18.718125 
" style="fill:none;stroke:#000000;stroke-linecap:square;stroke-linejoin:miter;stroke-width:0.8;"/>
   </g>
   <g id="patch_5">
    <path d="M 43.365625 204.996525 
L 293.349625 204.996525 
" style="fill:none;stroke:#000000;stroke-linecap:square;stroke-linejoin:miter;stroke-width:0.8;"/>
   </g>
   <g id="patch_6">
    <path d="M 43.365625 18.718125 
L 293.349625 18.718125 
" style="fill:none;stroke:#000000;stroke-linecap:square;stroke-linejoin:miter;stroke-width:0.8;"/>
   </g>
   <g id="text_14">
    <!-- Average GLUE -->
    <g transform="translate(125.936687 12.718125)scale(0.12 -0.12)">
     <defs>
      <path d="M 2188 4044 
L 1331 1722 
L 3047 1722 
L 2188 4044 
z
M 1831 4666 
L 2547 4666 
L 4325 0 
L 3669 0 
L 3244 1197 
L 1141 1197 
L 716 0 
L 50 0 
L 1831 4666 
z
" id="DejaVuSans-41" transform="scale(0.015625)"/>
      <path d="M 2906 1791 
Q 2906 2416 2648 2759 
Q 2391 3103 1925 3103 
Q 1463 3103 1205 2759 
Q 947 2416 947 1791 
Q 947 1169 1205 825 
Q 1463 481 1925 481 
Q 2391 481 2648 825 
Q 2906 1169 2906 1791 
z
M 3481 434 
Q 3481 -459 3084 -895 
Q 2688 -1331 1869 -1331 
Q 1566 -1331 1297 -1286 
Q 1028 -1241 775 -1147 
L 775 -588 
Q 1028 -725 1275 -790 
Q 1522 -856 1778 -856 
Q 2344 -856 2625 -561 
Q 2906 -266 2906 331 
L 2906 616 
Q 2728 306 2450 153 
Q 2172 0 1784 0 
Q 1141 0 747 490 
Q 353 981 353 1791 
Q 353 2603 747 3093 
Q 1141 3584 1784 3584 
Q 2172 3584 2450 3431 
Q 2728 3278 2906 2969 
L 2906 3500 
L 3481 3500 
L 3481 434 
z
" id="DejaVuSans-67" transform="scale(0.015625)"/>
      <path d="M 3809 666 
L 3809 1919 
L 2778 1919 
L 2778 2438 
L 4434 2438 
L 4434 434 
Q 4069 175 3628 42 
Q 3188 -91 2688 -91 
Q 1594 -91 976 548 
Q 359 1188 359 2328 
Q 359 3472 976 4111 
Q 1594 4750 2688 4750 
Q 3144 4750 3555 4637 
Q 3966 4525 4313 4306 
L 4313 3634 
Q 3963 3931 3569 4081 
Q 3175 4231 2741 4231 
Q 1884 4231 1454 3753 
Q 1025 3275 1025 2328 
Q 1025 1384 1454 906 
Q 1884 428 2741 428 
Q 3075 428 3337 486 
Q 3600 544 3809 666 
z
" id="DejaVuSans-47" transform="scale(0.015625)"/>
      <path d="M 556 4666 
L 1191 4666 
L 1191 1831 
Q 1191 1081 1462 751 
Q 1734 422 2344 422 
Q 2950 422 3222 751 
Q 3494 1081 3494 1831 
L 3494 4666 
L 4128 4666 
L 4128 1753 
Q 4128 841 3676 375 
Q 3225 -91 2344 -91 
Q 1459 -91 1007 375 
Q 556 841 556 1753 
L 556 4666 
z
" id="DejaVuSans-55" transform="scale(0.015625)"/>
      <path d="M 628 4666 
L 3578 4666 
L 3578 4134 
L 1259 4134 
L 1259 2753 
L 3481 2753 
L 3481 2222 
L 1259 2222 
L 1259 531 
L 3634 531 
L 3634 0 
L 628 0 
L 628 4666 
z
" id="DejaVuSans-45" transform="scale(0.015625)"/>
     </defs>
     <use xlink:href="#DejaVuSans-41"/>
     <use x="62.533203" xlink:href="#DejaVuSans-76"/>
     <use x="121.712891" xlink:href="#DejaVuSans-65"/>
     <use x="183.236328" xlink:href="#DejaVuSans-72"/>
     <use x="224.349609" xlink:href="#DejaVuSans-61"/>
     <use x="285.628906" xlink:href="#DejaVuSans-67"/>
     <use x="349.105469" xlink:href="#DejaVuSans-65"/>
     <use x="410.628906" xlink:href="#DejaVuSans-20"/>
     <use x="442.416016" xlink:href="#DejaVuSans-47"/>
     <use x="519.90625" xlink:href="#DejaVuSans-4c"/>
     <use x="570.619141" xlink:href="#DejaVuSans-55"/>
     <use x="643.8125" xlink:href="#DejaVuSans-45"/>
    </g>
   </g>
   <g id="legend_1">
    <g id="patch_7">
     <path d="M 160.168375 200.996525 
L 287.749625 200.996525 
Q 289.349625 200.996525 289.349625 199.396525 
L 289.349625 129.741525 
Q 289.349625 128.141525 287.749625 128.141525 
L 160.168375 128.141525 
Q 158.568375 128.141525 158.568375 129.741525 
L 158.568375 199.396525 
Q 158.568375 200.996525 160.168375 200.996525 
z
" style="fill:#ffffff;opacity:0.8;stroke:#cccccc;stroke-linejoin:miter;"/>
    </g>
    <g id="line2d_27">
     <path d="M 161.768375 134.620275 
L 177.768375 134.620275 
" style="fill:none;stroke:#0000ff;stroke-linecap:square;stroke-width:1.5;"/>
    </g>
    <g id="line2d_28"/>
    <g id="text_15">
     <!-- STTABT@f8 (Approx. Att.) -->
     <g transform="translate(184.168375 137.420275)scale(0.08 -0.08)">
      <defs>
       <path d="M 3425 4513 
L 3425 3897 
Q 3066 4069 2747 4153 
Q 2428 4238 2131 4238 
Q 1616 4238 1336 4038 
Q 1056 3838 1056 3469 
Q 1056 3159 1242 3001 
Q 1428 2844 1947 2747 
L 2328 2669 
Q 3034 2534 3370 2195 
Q 3706 1856 3706 1288 
Q 3706 609 3251 259 
Q 2797 -91 1919 -91 
Q 1588 -91 1214 -16 
Q 841 59 441 206 
L 441 856 
Q 825 641 1194 531 
Q 1563 422 1919 422 
Q 2459 422 2753 634 
Q 3047 847 3047 1241 
Q 3047 1584 2836 1778 
Q 2625 1972 2144 2069 
L 1759 2144 
Q 1053 2284 737 2584 
Q 422 2884 422 3419 
Q 422 4038 858 4394 
Q 1294 4750 2059 4750 
Q 2388 4750 2728 4690 
Q 3069 4631 3425 4513 
z
" id="DejaVuSans-53" transform="scale(0.015625)"/>
       <path d="M -19 4666 
L 3928 4666 
L 3928 4134 
L 2272 4134 
L 2272 0 
L 1638 0 
L 1638 4134 
L -19 4134 
L -19 4666 
z
" id="DejaVuSans-54" transform="scale(0.015625)"/>
       <path d="M 1259 2228 
L 1259 519 
L 2272 519 
Q 2781 519 3026 730 
Q 3272 941 3272 1375 
Q 3272 1813 3026 2020 
Q 2781 2228 2272 2228 
L 1259 2228 
z
M 1259 4147 
L 1259 2741 
L 2194 2741 
Q 2656 2741 2882 2914 
Q 3109 3088 3109 3444 
Q 3109 3797 2882 3972 
Q 2656 4147 2194 4147 
L 1259 4147 
z
M 628 4666 
L 2241 4666 
Q 2963 4666 3353 4366 
Q 3744 4066 3744 3513 
Q 3744 3084 3544 2831 
Q 3344 2578 2956 2516 
Q 3422 2416 3680 2098 
Q 3938 1781 3938 1306 
Q 3938 681 3513 340 
Q 3088 0 2303 0 
L 628 0 
L 628 4666 
z
" id="DejaVuSans-42" transform="scale(0.015625)"/>
       <path d="M 2381 1678 
Q 2381 1231 2603 976 
Q 2825 722 3213 722 
Q 3597 722 3817 978 
Q 4038 1234 4038 1678 
Q 4038 2116 3813 2373 
Q 3588 2631 3206 2631 
Q 2828 2631 2604 2375 
Q 2381 2119 2381 1678 
z
M 4084 744 
Q 3897 503 3655 389 
Q 3413 275 3091 275 
Q 2553 275 2217 664 
Q 1881 1053 1881 1678 
Q 1881 2303 2218 2693 
Q 2556 3084 3091 3084 
Q 3413 3084 3656 2967 
Q 3900 2850 4084 2613 
L 4084 3022 
L 4531 3022 
L 4531 722 
Q 4988 791 5245 1139 
Q 5503 1488 5503 2041 
Q 5503 2375 5404 2669 
Q 5306 2963 5106 3213 
Q 4781 3622 4314 3839 
Q 3847 4056 3297 4056 
Q 2913 4056 2559 3954 
Q 2206 3853 1906 3653 
Q 1416 3334 1139 2817 
Q 863 2300 863 1697 
Q 863 1200 1042 765 
Q 1222 331 1563 0 
Q 1891 -325 2322 -495 
Q 2753 -666 3244 -666 
Q 3647 -666 4036 -530 
Q 4425 -394 4750 -141 
L 5031 -488 
Q 4641 -791 4180 -952 
Q 3719 -1113 3244 -1113 
Q 2666 -1113 2153 -908 
Q 1641 -703 1241 -313 
Q 841 78 631 592 
Q 422 1106 422 1697 
Q 422 2266 634 2781 
Q 847 3297 1241 3688 
Q 1644 4084 2172 4295 
Q 2700 4506 3291 4506 
Q 3953 4506 4520 4234 
Q 5088 3963 5472 3463 
Q 5706 3156 5829 2797 
Q 5953 2438 5953 2053 
Q 5953 1231 5456 756 
Q 4959 281 4084 263 
L 4084 744 
z
" id="DejaVuSans-40" transform="scale(0.015625)"/>
       <path d="M 2375 4863 
L 2375 4384 
L 1825 4384 
Q 1516 4384 1395 4259 
Q 1275 4134 1275 3809 
L 1275 3500 
L 2222 3500 
L 2222 3053 
L 1275 3053 
L 1275 0 
L 697 0 
L 697 3053 
L 147 3053 
L 147 3500 
L 697 3500 
L 697 3744 
Q 697 4328 969 4595 
Q 1241 4863 1831 4863 
L 2375 4863 
z
" id="DejaVuSans-66" transform="scale(0.015625)"/>
       <path d="M 1159 525 
L 1159 -1331 
L 581 -1331 
L 581 3500 
L 1159 3500 
L 1159 2969 
Q 1341 3281 1617 3432 
Q 1894 3584 2278 3584 
Q 2916 3584 3314 3078 
Q 3713 2572 3713 1747 
Q 3713 922 3314 415 
Q 2916 -91 2278 -91 
Q 1894 -91 1617 61 
Q 1341 213 1159 525 
z
M 3116 1747 
Q 3116 2381 2855 2742 
Q 2594 3103 2138 3103 
Q 1681 3103 1420 2742 
Q 1159 2381 1159 1747 
Q 1159 1113 1420 752 
Q 1681 391 2138 391 
Q 2594 391 2855 752 
Q 3116 1113 3116 1747 
z
" id="DejaVuSans-70" transform="scale(0.015625)"/>
       <path d="M 1959 3097 
Q 1497 3097 1228 2736 
Q 959 2375 959 1747 
Q 959 1119 1226 758 
Q 1494 397 1959 397 
Q 2419 397 2687 759 
Q 2956 1122 2956 1747 
Q 2956 2369 2687 2733 
Q 2419 3097 1959 3097 
z
M 1959 3584 
Q 2709 3584 3137 3096 
Q 3566 2609 3566 1747 
Q 3566 888 3137 398 
Q 2709 -91 1959 -91 
Q 1206 -91 779 398 
Q 353 888 353 1747 
Q 353 2609 779 3096 
Q 1206 3584 1959 3584 
z
" id="DejaVuSans-6f" transform="scale(0.015625)"/>
       <path d="M 3513 3500 
L 2247 1797 
L 3578 0 
L 2900 0 
L 1881 1375 
L 863 0 
L 184 0 
L 1544 1831 
L 300 3500 
L 978 3500 
L 1906 2253 
L 2834 3500 
L 3513 3500 
z
" id="DejaVuSans-78" transform="scale(0.015625)"/>
       <path d="M 684 794 
L 1344 794 
L 1344 0 
L 684 0 
L 684 794 
z
" id="DejaVuSans-2e" transform="scale(0.015625)"/>
      </defs>
      <use xlink:href="#DejaVuSans-53"/>
      <use x="63.476562" xlink:href="#DejaVuSans-54"/>
      <use x="122.810547" xlink:href="#DejaVuSans-54"/>
      <use x="176.144531" xlink:href="#DejaVuSans-41"/>
      <use x="244.552734" xlink:href="#DejaVuSans-42"/>
      <use x="313.15625" xlink:href="#DejaVuSans-54"/>
      <use x="374.240234" xlink:href="#DejaVuSans-40"/>
      <use x="474.240234" xlink:href="#DejaVuSans-66"/>
      <use x="509.445312" xlink:href="#DejaVuSans-38"/>
      <use x="573.068359" xlink:href="#DejaVuSans-20"/>
      <use x="604.855469" xlink:href="#DejaVuSans-28"/>
      <use x="643.869141" xlink:href="#DejaVuSans-41"/>
      <use x="712.277344" xlink:href="#DejaVuSans-70"/>
      <use x="775.753906" xlink:href="#DejaVuSans-70"/>
      <use x="839.230469" xlink:href="#DejaVuSans-72"/>
      <use x="878.09375" xlink:href="#DejaVuSans-6f"/>
      <use x="936.150391" xlink:href="#DejaVuSans-78"/>
      <use x="995.330078" xlink:href="#DejaVuSans-2e"/>
      <use x="1027.117188" xlink:href="#DejaVuSans-20"/>
      <use x="1058.904297" xlink:href="#DejaVuSans-41"/>
      <use x="1125.5625" xlink:href="#DejaVuSans-74"/>
      <use x="1164.771484" xlink:href="#DejaVuSans-74"/>
      <use x="1203.980469" xlink:href="#DejaVuSans-2e"/>
      <use x="1235.767578" xlink:href="#DejaVuSans-29"/>
     </g>
    </g>
    <g id="line2d_29">
     <path d="M 161.768375 146.362775 
L 177.768375 146.362775 
" style="fill:none;stroke:#00ff00;stroke-linecap:square;stroke-width:1.5;"/>
    </g>
    <g id="line2d_30"/>
    <g id="text_16">
     <!-- STTABT@f8 (Actual Att.) -->
     <g transform="translate(184.168375 149.162775)scale(0.08 -0.08)">
      <defs>
       <path d="M 544 1381 
L 544 3500 
L 1119 3500 
L 1119 1403 
Q 1119 906 1312 657 
Q 1506 409 1894 409 
Q 2359 409 2629 706 
Q 2900 1003 2900 1516 
L 2900 3500 
L 3475 3500 
L 3475 0 
L 2900 0 
L 2900 538 
Q 2691 219 2414 64 
Q 2138 -91 1772 -91 
Q 1169 -91 856 284 
Q 544 659 544 1381 
z
M 1991 3584 
L 1991 3584 
z
" id="DejaVuSans-75" transform="scale(0.015625)"/>
      </defs>
      <use xlink:href="#DejaVuSans-53"/>
      <use x="63.476562" xlink:href="#DejaVuSans-54"/>
      <use x="122.810547" xlink:href="#DejaVuSans-54"/>
      <use x="176.144531" xlink:href="#DejaVuSans-41"/>
      <use x="244.552734" xlink:href="#DejaVuSans-42"/>
      <use x="313.15625" xlink:href="#DejaVuSans-54"/>
      <use x="374.240234" xlink:href="#DejaVuSans-40"/>
      <use x="474.240234" xlink:href="#DejaVuSans-66"/>
      <use x="509.445312" xlink:href="#DejaVuSans-38"/>
      <use x="573.068359" xlink:href="#DejaVuSans-20"/>
      <use x="604.855469" xlink:href="#DejaVuSans-28"/>
      <use x="643.869141" xlink:href="#DejaVuSans-41"/>
      <use x="710.527344" xlink:href="#DejaVuSans-63"/>
      <use x="765.507812" xlink:href="#DejaVuSans-74"/>
      <use x="804.716797" xlink:href="#DejaVuSans-75"/>
      <use x="868.095703" xlink:href="#DejaVuSans-61"/>
      <use x="929.375" xlink:href="#DejaVuSans-6c"/>
      <use x="957.158203" xlink:href="#DejaVuSans-20"/>
      <use x="988.945312" xlink:href="#DejaVuSans-41"/>
      <use x="1055.603516" xlink:href="#DejaVuSans-74"/>
      <use x="1094.8125" xlink:href="#DejaVuSans-74"/>
      <use x="1134.021484" xlink:href="#DejaVuSans-2e"/>
      <use x="1165.808594" xlink:href="#DejaVuSans-29"/>
     </g>
    </g>
    <g id="line2d_31">
     <path d="M 161.768375 158.105275 
L 177.768375 158.105275 
" style="fill:none;stroke:#0000ff;stroke-dasharray:5.55,2.4;stroke-dashoffset:0;stroke-width:1.5;"/>
    </g>
    <g id="line2d_32"/>
    <g id="text_17">
     <!-- STTABT@f4 (Approx. Att.) -->
     <g transform="translate(184.168375 160.905275)scale(0.08 -0.08)">
      <use xlink:href="#DejaVuSans-53"/>
      <use x="63.476562" xlink:href="#DejaVuSans-54"/>
      <use x="122.810547" xlink:href="#DejaVuSans-54"/>
      <use x="176.144531" xlink:href="#DejaVuSans-41"/>
      <use x="244.552734" xlink:href="#DejaVuSans-42"/>
      <use x="313.15625" xlink:href="#DejaVuSans-54"/>
      <use x="374.240234" xlink:href="#DejaVuSans-40"/>
      <use x="474.240234" xlink:href="#DejaVuSans-66"/>
      <use x="509.445312" xlink:href="#DejaVuSans-34"/>
      <use x="573.068359" xlink:href="#DejaVuSans-20"/>
      <use x="604.855469" xlink:href="#DejaVuSans-28"/>
      <use x="643.869141" xlink:href="#DejaVuSans-41"/>
      <use x="712.277344" xlink:href="#DejaVuSans-70"/>
      <use x="775.753906" xlink:href="#DejaVuSans-70"/>
      <use x="839.230469" xlink:href="#DejaVuSans-72"/>
      <use x="878.09375" xlink:href="#DejaVuSans-6f"/>
      <use x="936.150391" xlink:href="#DejaVuSans-78"/>
      <use x="995.330078" xlink:href="#DejaVuSans-2e"/>
      <use x="1027.117188" xlink:href="#DejaVuSans-20"/>
      <use x="1058.904297" xlink:href="#DejaVuSans-41"/>
      <use x="1125.5625" xlink:href="#DejaVuSans-74"/>
      <use x="1164.771484" xlink:href="#DejaVuSans-74"/>
      <use x="1203.980469" xlink:href="#DejaVuSans-2e"/>
      <use x="1235.767578" xlink:href="#DejaVuSans-29"/>
     </g>
    </g>
    <g id="line2d_33">
     <path d="M 161.768375 169.847775 
L 177.768375 169.847775 
" style="fill:none;stroke:#00ff00;stroke-dasharray:5.55,2.4;stroke-dashoffset:0;stroke-width:1.5;"/>
    </g>
    <g id="line2d_34"/>
    <g id="text_18">
     <!-- STTABT@f4 (Actual Att.) -->
     <g transform="translate(184.168375 172.647775)scale(0.08 -0.08)">
      <use xlink:href="#DejaVuSans-53"/>
      <use x="63.476562" xlink:href="#DejaVuSans-54"/>
      <use x="122.810547" xlink:href="#DejaVuSans-54"/>
      <use x="176.144531" xlink:href="#DejaVuSans-41"/>
      <use x="244.552734" xlink:href="#DejaVuSans-42"/>
      <use x="313.15625" xlink:href="#DejaVuSans-54"/>
      <use x="374.240234" xlink:href="#DejaVuSans-40"/>
      <use x="474.240234" xlink:href="#DejaVuSans-66"/>
      <use x="509.445312" xlink:href="#DejaVuSans-34"/>
      <use x="573.068359" xlink:href="#DejaVuSans-20"/>
      <use x="604.855469" xlink:href="#DejaVuSans-28"/>
      <use x="643.869141" xlink:href="#DejaVuSans-41"/>
      <use x="710.527344" xlink:href="#DejaVuSans-63"/>
      <use x="765.507812" xlink:href="#DejaVuSans-74"/>
      <use x="804.716797" xlink:href="#DejaVuSans-75"/>
      <use x="868.095703" xlink:href="#DejaVuSans-61"/>
      <use x="929.375" xlink:href="#DejaVuSans-6c"/>
      <use x="957.158203" xlink:href="#DejaVuSans-20"/>
      <use x="988.945312" xlink:href="#DejaVuSans-41"/>
      <use x="1055.603516" xlink:href="#DejaVuSans-74"/>
      <use x="1094.8125" xlink:href="#DejaVuSans-74"/>
      <use x="1134.021484" xlink:href="#DejaVuSans-2e"/>
      <use x="1165.808594" xlink:href="#DejaVuSans-29"/>
     </g>
    </g>
    <g id="line2d_35">
     <path d="M 161.768375 181.590275 
L 177.768375 181.590275 
" style="fill:none;stroke:#000000;stroke-dasharray:5.55,2.4;stroke-dashoffset:0;stroke-width:1.5;"/>
    </g>
    <g id="line2d_36"/>
    <g id="text_19">
     <!-- Manual Top-k -->
     <g transform="translate(184.168375 184.390275)scale(0.08 -0.08)">
      <defs>
       <path d="M 3513 2113 
L 3513 0 
L 2938 0 
L 2938 2094 
Q 2938 2591 2744 2837 
Q 2550 3084 2163 3084 
Q 1697 3084 1428 2787 
Q 1159 2491 1159 1978 
L 1159 0 
L 581 0 
L 581 3500 
L 1159 3500 
L 1159 2956 
Q 1366 3272 1645 3428 
Q 1925 3584 2291 3584 
Q 2894 3584 3203 3211 
Q 3513 2838 3513 2113 
z
" id="DejaVuSans-6e" transform="scale(0.015625)"/>
       <path d="M 313 2009 
L 1997 2009 
L 1997 1497 
L 313 1497 
L 313 2009 
z
" id="DejaVuSans-2d" transform="scale(0.015625)"/>
       <path d="M 581 4863 
L 1159 4863 
L 1159 1991 
L 2875 3500 
L 3609 3500 
L 1753 1863 
L 3688 0 
L 2938 0 
L 1159 1709 
L 1159 0 
L 581 0 
L 581 4863 
z
" id="DejaVuSans-6b" transform="scale(0.015625)"/>
      </defs>
      <use xlink:href="#DejaVuSans-4d"/>
      <use x="86.279297" xlink:href="#DejaVuSans-61"/>
      <use x="147.558594" xlink:href="#DejaVuSans-6e"/>
      <use x="210.9375" xlink:href="#DejaVuSans-75"/>
      <use x="274.316406" xlink:href="#DejaVuSans-61"/>
      <use x="335.595703" xlink:href="#DejaVuSans-6c"/>
      <use x="363.378906" xlink:href="#DejaVuSans-20"/>
      <use x="395.166016" xlink:href="#DejaVuSans-54"/>
      <use x="439.25" xlink:href="#DejaVuSans-6f"/>
      <use x="500.431641" xlink:href="#DejaVuSans-70"/>
      <use x="563.908203" xlink:href="#DejaVuSans-2d"/>
      <use x="599.992188" xlink:href="#DejaVuSans-6b"/>
     </g>
    </g>
    <g id="line2d_37">
     <path d="M 161.768375 193.332775 
L 177.768375 193.332775 
" style="fill:none;stroke:#87ceeb;stroke-dasharray:1.5,2.475;stroke-dashoffset:0;stroke-width:1.5;"/>
    </g>
    <g id="line2d_38"/>
    <g id="text_20">
     <!-- BERT$_{BASE}$ -->
     <g transform="translate(184.168375 196.132775)scale(0.08 -0.08)">
      <defs>
       <path d="M 1081 4666 
L 2694 4666 
Q 3350 4666 3675 4422 
Q 4000 4178 4000 3688 
Q 4000 3238 3720 2911 
Q 3441 2584 2988 2516 
Q 3375 2428 3569 2181 
Q 3763 1934 3763 1522 
Q 3763 819 3242 409 
Q 2722 0 1819 0 
L 172 0 
L 1081 4666 
z
M 1234 2228 
L 903 519 
L 1919 519 
Q 2491 519 2800 781 
Q 3109 1044 3109 1522 
Q 3109 1891 2904 2059 
Q 2700 2228 2247 2228 
L 1234 2228 
z
M 1606 4147 
L 1331 2741 
L 2272 2741 
Q 2775 2741 3058 2959 
Q 3341 3178 3341 3566 
Q 3341 3869 3150 4008 
Q 2959 4147 2541 4147 
L 1606 4147 
z
" id="DejaVuSans-Oblique-42" transform="scale(0.015625)"/>
       <path d="M 2356 4666 
L 3072 4666 
L 3938 0 
L 3278 0 
L 3084 1197 
L 984 1197 
L 325 0 
L -341 0 
L 2356 4666 
z
M 2584 4044 
L 1275 1722 
L 2988 1722 
L 2584 4044 
z
" id="DejaVuSans-Oblique-41" transform="scale(0.015625)"/>
       <path d="M 3859 4513 
L 3738 3897 
Q 3422 4066 3111 4152 
Q 2800 4238 2509 4238 
Q 1944 4238 1609 3991 
Q 1275 3744 1275 3334 
Q 1275 3109 1398 2989 
Q 1522 2869 2034 2731 
L 2413 2638 
Q 3053 2472 3303 2217 
Q 3553 1963 3553 1503 
Q 3553 797 2998 353 
Q 2444 -91 1538 -91 
Q 1166 -91 791 -17 
Q 416 56 38 206 
L 166 856 
Q 513 641 861 531 
Q 1209 422 1556 422 
Q 2147 422 2503 684 
Q 2859 947 2859 1369 
Q 2859 1650 2717 1795 
Q 2575 1941 2106 2059 
L 1728 2156 
Q 1081 2325 845 2545 
Q 609 2766 609 3163 
Q 609 3859 1145 4304 
Q 1681 4750 2541 4750 
Q 2875 4750 3203 4690 
Q 3531 4631 3859 4513 
z
" id="DejaVuSans-Oblique-53" transform="scale(0.015625)"/>
       <path d="M 1081 4666 
L 4031 4666 
L 3928 4134 
L 1606 4134 
L 1338 2753 
L 3566 2753 
L 3463 2222 
L 1234 2222 
L 909 531 
L 3284 531 
L 3181 0 
L 172 0 
L 1081 4666 
z
" id="DejaVuSans-Oblique-45" transform="scale(0.015625)"/>
      </defs>
      <use transform="translate(0 0.09375)" xlink:href="#DejaVuSans-42"/>
      <use transform="translate(68.603516 0.09375)" xlink:href="#DejaVuSans-45"/>
      <use transform="translate(131.787109 0.09375)" xlink:href="#DejaVuSans-52"/>
      <use transform="translate(201.269531 0.09375)" xlink:href="#DejaVuSans-54"/>
      <use transform="translate(263.310547 -16.3125)scale(0.7)" xlink:href="#DejaVuSans-Oblique-42"/>
      <use transform="translate(311.333008 -16.3125)scale(0.7)" xlink:href="#DejaVuSans-Oblique-41"/>
      <use transform="translate(359.21875 -16.3125)scale(0.7)" xlink:href="#DejaVuSans-Oblique-53"/>
      <use transform="translate(403.652344 -16.3125)scale(0.7)" xlink:href="#DejaVuSans-Oblique-45"/>
     </g>
    </g>
   </g>
   <g id="line2d_39">
    <path clip-path="url(#pa5ae2840c4)" d="M 83.115762 239.952775 
L 85.168879 228.304567 
L 85.392615 227.03522 
L 86.153625 222.779598 
L 88.907673 209.830034 
L 101.73541 160.11749 
L 105.590303 145.32254 
L 105.798243 144.530718 
L 106.158441 143.14149 
L 113.594859 115.435255 
L 115.217399 112.065493 
L 119.633801 102.893317 
L 124.665357 94.28862 
L 130.15054 85.907235 
L 137.560332 80.148289 
L 139.420915 78.736006 
L 140.153112 78.189608 
L 142.434046 76.494636 
L 142.707778 76.290671 
L 145.220655 74.041098 
L 152.010872 67.962373 
L 154.566118 65.897782 
L 162.218769 59.417889 
L 174.940762 54.68584 
L 175.851011 54.345142 
L 176.013825 54.28388 
L 177.614691 53.68439 
L 181.733361 52.511022 
L 182.470738 52.300951 
L 183.062937 52.153748 
L 189.160348 51.131715 
L 190.860095 50.912706 
L 222.875709 48.108351 
L 223.338263 48.068255 
L 223.445498 48.058782 
L 224.022036 48.00698 
L 225.317266 47.790961 
L 225.779206 47.787969 
L 226.553396 47.782954 
L 227.851034 47.780086 
L 231.55035 47.705837 
L 270.829784 46.917458 
L 270.829956 46.881895 
L 271.057901 46.897298 
L 271.250684 46.851961 
L 271.919613 46.805124 
L 272.163512 46.716467 
L 273.468785 46.673715 
L 276.816217 46.862138 
L 279.110735 47.201994 
" style="fill:none;stroke:#0000ff;stroke-dasharray:5.55,2.4;stroke-dashoffset:0;stroke-width:1.5;"/>
   </g>
   <g id="line2d_40">
    <path clip-path="url(#pa5ae2840c4)" d="M 64.917588 239.952775 
L 65.486916 236.717072 
L 65.515635 236.556258 
L 65.75778 235.36473 
L 69.684134 216.044213 
L 81.355634 165.938006 
L 85.376977 148.964025 
L 85.558929 148.201957 
L 85.954311 146.568622 
L 94.110121 114.751568 
L 95.328574 112.184575 
L 100.325826 101.656551 
L 105.632747 92.925854 
L 111.232284 83.747663 
L 117.062994 79.569675 
L 119.100463 78.14683 
L 119.976894 77.563529 
L 121.998669 76.229984 
L 123.071045 75.630506 
L 125.389958 73.173468 
L 133.050695 65.056427 
L 135.350573 62.925202 
L 143.293003 56.195765 
L 154.381629 52.621215 
L 155.427162 52.281732 
L 155.87479 52.137276 
L 156.894327 51.809523 
L 161.844959 50.155347 
L 163.322952 49.661499 
L 163.592235 49.58261 
L 169.851742 49.595271 
L 171.555206 49.624783 
L 202.280411 49.533479 
L 202.98404 49.531388 
L 203.203228 49.530736 
L 203.223549 49.52911 
L 205.788683 49.319559 
L 205.880191 49.312157 
L 206.921111 49.227962 
L 208.136833 49.141745 
L 211.970292 48.947684 
L 249.942682 47.428477 
L 250.227746 47.456258 
L 250.570338 47.547909 
L 251.144128 47.604139 
L 251.953788 47.682757 
L 252.276441 47.802046 
L 253.673287 47.254392 
L 257.139678 47.201994 
L 259.580292 47.201994 
" style="fill:none;stroke:#0000ff;stroke-linecap:square;stroke-width:1.5;"/>
   </g>
  </g>
 </g>
 <defs>
  <clipPath id="pa5ae2840c4">
   <rect height="186.2784" width="249.984" x="43.365625" y="18.718125"/>
  </clipPath>
 </defs>
</svg>
