<?xml version="1.0" encoding="utf-8" standalone="no"?>
<!DOCTYPE svg PUBLIC "-//W3C//DTD SVG 1.1//EN"
  "http://www.w3.org/Graphics/SVG/1.1/DTD/svg11.dtd">
<svg height="345.6pt" version="1.1" viewBox="0 0 460.8 345.6" width="460.8pt" xmlns="http://www.w3.org/2000/svg" xmlns:xlink="http://www.w3.org/1999/xlink">
 <metadata>
  <rdf:RDF xmlns:cc="http://creativecommons.org/ns#" xmlns:dc="http://purl.org/dc/elements/1.1/" xmlns:rdf="http://www.w3.org/1999/02/22-rdf-syntax-ns#">
   <cc:Work>
    <dc:type rdf:resource="http://purl.org/dc/dcmitype/StillImage"/>
    <dc:date>2022-09-17T12:00:59.335414</dc:date>
    <dc:format>image/svg+xml</dc:format>
    <dc:creator>
     <cc:Agent>
      <dc:title>Matplotlib v3.4.2, https://matplotlib.org/</dc:title>
     </cc:Agent>
    </dc:creator>
   </cc:Work>
  </rdf:RDF>
 </metadata>
 <defs>
  <style type="text/css">*{stroke-linecap:butt;stroke-linejoin:round;}</style>
 </defs>
 <g id="figure_1">
  <g id="patch_1">
   <path d="M 0 345.6 
L 460.8 345.6 
L 460.8 0 
L 0 0 
z
" style="fill:#ffffff;"/>
  </g>
  <g id="axes_1">
   <g id="patch_2">
    <path d="M 57.6 307.584 
L 414.72 307.584 
L 414.72 41.472 
L 57.6 41.472 
z
" style="fill:#ffffff;"/>
   </g>
   <g id="line2d_1">
    <path clip-path="url(#p49e6ce0124)" d="M 73.832727 53.568 
L 398.487273 53.568 
" style="fill:none;stroke:#87ceeb;stroke-dasharray:1.5,2.475;stroke-dashoffset:0;stroke-width:1.5;"/>
   </g>
   <g id="line2d_2">
    <path clip-path="url(#p49e6ce0124)" d="M 209.395875 346.6 
L 222.135792 251.300218 
L 258.206865 123.611183 
L 317.55457 66.868218 
L 354.550542 59.436764 
" style="fill:none;stroke:#000000;stroke-dasharray:4.44,1.92;stroke-dashoffset:0;stroke-width:1.2;"/>
    <defs>
     <path d="M -3 3 
L 3 -3 
M -3 -3 
L 3 3 
" id="m1e9202841e" style="stroke:#000000;"/>
    </defs>
    <g clip-path="url(#p49e6ce0124)">
     <use style="stroke:#000000;" x="118.85537" xlink:href="#m1e9202841e" y="1203.533297"/>
     <use style="stroke:#000000;" x="176.353277" xlink:href="#m1e9202841e" y="593.772142"/>
     <use style="stroke:#000000;" x="222.135792" xlink:href="#m1e9202841e" y="251.300218"/>
     <use style="stroke:#000000;" x="258.206865" xlink:href="#m1e9202841e" y="123.611183"/>
     <use style="stroke:#000000;" x="317.55457" xlink:href="#m1e9202841e" y="66.868218"/>
     <use style="stroke:#000000;" x="354.550542" xlink:href="#m1e9202841e" y="59.436764"/>
    </g>
   </g>
   <g id="line2d_3">
    <path clip-path="url(#p49e6ce0124)" d="M 163.169306 295.488 
L 182.02754 138.509105 
L 204.894288 92.065028 
L 232.316165 76.815253 
L 264.839786 61.183364 
L 303.011768 57.709611 
L 347.378725 55.972735 
L 398.487273 54.235858 
" style="fill:none;stroke:#808080;stroke-dasharray:4.44,1.92;stroke-dashoffset:0;stroke-width:1.2;"/>
    <defs>
     <path d="M -3 3 
L 3 -3 
M -3 -3 
L 3 3 
" id="maa5e14314e" style="stroke:#808080;"/>
    </defs>
    <g clip-path="url(#p49e6ce0124)">
     <use style="fill:#808080;stroke:#808080;" x="163.169306" xlink:href="#maa5e14314e" y="295.488"/>
     <use style="fill:#808080;stroke:#808080;" x="182.02754" xlink:href="#maa5e14314e" y="138.509105"/>
     <use style="fill:#808080;stroke:#808080;" x="204.894288" xlink:href="#maa5e14314e" y="92.065028"/>
     <use style="fill:#808080;stroke:#808080;" x="232.316165" xlink:href="#maa5e14314e" y="76.815253"/>
     <use style="fill:#808080;stroke:#808080;" x="264.839786" xlink:href="#maa5e14314e" y="61.183364"/>
     <use style="fill:#808080;stroke:#808080;" x="303.011768" xlink:href="#maa5e14314e" y="57.709611"/>
     <use style="fill:#808080;stroke:#808080;" x="347.378725" xlink:href="#maa5e14314e" y="55.972735"/>
     <use style="fill:#808080;stroke:#808080;" x="398.487273" xlink:href="#maa5e14314e" y="54.235858"/>
    </g>
   </g>
   <g id="matplotlib.axis_1">
    <g id="xtick_1">
     <g id="line2d_4">
      <path clip-path="url(#p49e6ce0124)" d="M 112.874355 307.584 
L 112.874355 41.472 
" style="fill:none;stroke:#b0b0b0;stroke-linecap:square;stroke-width:0.8;"/>
     </g>
     <g id="line2d_5">
      <defs>
       <path d="M 0 0 
L 0 3.5 
" id="m2177ae2f1a" style="stroke:#000000;stroke-width:0.8;"/>
      </defs>
      <g>
       <use style="stroke:#000000;stroke-width:0.8;" x="112.874355" xlink:href="#m2177ae2f1a" y="307.584"/>
      </g>
     </g>
     <g id="text_1">
      <!-- 20 -->
      <g transform="translate(106.511855 322.182437)scale(0.1 -0.1)">
       <defs>
        <path d="M 1228 531 
L 3431 531 
L 3431 0 
L 469 0 
L 469 531 
Q 828 903 1448 1529 
Q 2069 2156 2228 2338 
Q 2531 2678 2651 2914 
Q 2772 3150 2772 3378 
Q 2772 3750 2511 3984 
Q 2250 4219 1831 4219 
Q 1534 4219 1204 4116 
Q 875 4013 500 3803 
L 500 4441 
Q 881 4594 1212 4672 
Q 1544 4750 1819 4750 
Q 2544 4750 2975 4387 
Q 3406 4025 3406 3419 
Q 3406 3131 3298 2873 
Q 3191 2616 2906 2266 
Q 2828 2175 2409 1742 
Q 1991 1309 1228 531 
z
" id="DejaVuSans-32" transform="scale(0.015625)"/>
        <path d="M 2034 4250 
Q 1547 4250 1301 3770 
Q 1056 3291 1056 2328 
Q 1056 1369 1301 889 
Q 1547 409 2034 409 
Q 2525 409 2770 889 
Q 3016 1369 3016 2328 
Q 3016 3291 2770 3770 
Q 2525 4250 2034 4250 
z
M 2034 4750 
Q 2819 4750 3233 4129 
Q 3647 3509 3647 2328 
Q 3647 1150 3233 529 
Q 2819 -91 2034 -91 
Q 1250 -91 836 529 
Q 422 1150 422 2328 
Q 422 3509 836 4129 
Q 1250 4750 2034 4750 
z
" id="DejaVuSans-30" transform="scale(0.015625)"/>
       </defs>
       <use xlink:href="#DejaVuSans-32"/>
       <use x="63.623047" xlink:href="#DejaVuSans-30"/>
      </g>
     </g>
    </g>
    <g id="xtick_2">
     <g id="line2d_6">
      <path clip-path="url(#p49e6ce0124)" d="M 191.829925 307.584 
L 191.829925 41.472 
" style="fill:none;stroke:#b0b0b0;stroke-linecap:square;stroke-width:0.8;"/>
     </g>
     <g id="line2d_7">
      <g>
       <use style="stroke:#000000;stroke-width:0.8;" x="191.829925" xlink:href="#m2177ae2f1a" y="307.584"/>
      </g>
     </g>
     <g id="text_2">
      <!-- 40 -->
      <g transform="translate(185.467425 322.182437)scale(0.1 -0.1)">
       <defs>
        <path d="M 2419 4116 
L 825 1625 
L 2419 1625 
L 2419 4116 
z
M 2253 4666 
L 3047 4666 
L 3047 1625 
L 3713 1625 
L 3713 1100 
L 3047 1100 
L 3047 0 
L 2419 0 
L 2419 1100 
L 313 1100 
L 313 1709 
L 2253 4666 
z
" id="DejaVuSans-34" transform="scale(0.015625)"/>
       </defs>
       <use xlink:href="#DejaVuSans-34"/>
       <use x="63.623047" xlink:href="#DejaVuSans-30"/>
      </g>
     </g>
    </g>
    <g id="xtick_3">
     <g id="line2d_8">
      <path clip-path="url(#p49e6ce0124)" d="M 270.785495 307.584 
L 270.785495 41.472 
" style="fill:none;stroke:#b0b0b0;stroke-linecap:square;stroke-width:0.8;"/>
     </g>
     <g id="line2d_9">
      <g>
       <use style="stroke:#000000;stroke-width:0.8;" x="270.785495" xlink:href="#m2177ae2f1a" y="307.584"/>
      </g>
     </g>
     <g id="text_3">
      <!-- 60 -->
      <g transform="translate(264.422995 322.182437)scale(0.1 -0.1)">
       <defs>
        <path d="M 2113 2584 
Q 1688 2584 1439 2293 
Q 1191 2003 1191 1497 
Q 1191 994 1439 701 
Q 1688 409 2113 409 
Q 2538 409 2786 701 
Q 3034 994 3034 1497 
Q 3034 2003 2786 2293 
Q 2538 2584 2113 2584 
z
M 3366 4563 
L 3366 3988 
Q 3128 4100 2886 4159 
Q 2644 4219 2406 4219 
Q 1781 4219 1451 3797 
Q 1122 3375 1075 2522 
Q 1259 2794 1537 2939 
Q 1816 3084 2150 3084 
Q 2853 3084 3261 2657 
Q 3669 2231 3669 1497 
Q 3669 778 3244 343 
Q 2819 -91 2113 -91 
Q 1303 -91 875 529 
Q 447 1150 447 2328 
Q 447 3434 972 4092 
Q 1497 4750 2381 4750 
Q 2619 4750 2861 4703 
Q 3103 4656 3366 4563 
z
" id="DejaVuSans-36" transform="scale(0.015625)"/>
       </defs>
       <use xlink:href="#DejaVuSans-36"/>
       <use x="63.623047" xlink:href="#DejaVuSans-30"/>
      </g>
     </g>
    </g>
    <g id="xtick_4">
     <g id="line2d_10">
      <path clip-path="url(#p49e6ce0124)" d="M 349.741065 307.584 
L 349.741065 41.472 
" style="fill:none;stroke:#b0b0b0;stroke-linecap:square;stroke-width:0.8;"/>
     </g>
     <g id="line2d_11">
      <g>
       <use style="stroke:#000000;stroke-width:0.8;" x="349.741065" xlink:href="#m2177ae2f1a" y="307.584"/>
      </g>
     </g>
     <g id="text_4">
      <!-- 80 -->
      <g transform="translate(343.378565 322.182437)scale(0.1 -0.1)">
       <defs>
        <path d="M 2034 2216 
Q 1584 2216 1326 1975 
Q 1069 1734 1069 1313 
Q 1069 891 1326 650 
Q 1584 409 2034 409 
Q 2484 409 2743 651 
Q 3003 894 3003 1313 
Q 3003 1734 2745 1975 
Q 2488 2216 2034 2216 
z
M 1403 2484 
Q 997 2584 770 2862 
Q 544 3141 544 3541 
Q 544 4100 942 4425 
Q 1341 4750 2034 4750 
Q 2731 4750 3128 4425 
Q 3525 4100 3525 3541 
Q 3525 3141 3298 2862 
Q 3072 2584 2669 2484 
Q 3125 2378 3379 2068 
Q 3634 1759 3634 1313 
Q 3634 634 3220 271 
Q 2806 -91 2034 -91 
Q 1263 -91 848 271 
Q 434 634 434 1313 
Q 434 1759 690 2068 
Q 947 2378 1403 2484 
z
M 1172 3481 
Q 1172 3119 1398 2916 
Q 1625 2713 2034 2713 
Q 2441 2713 2670 2916 
Q 2900 3119 2900 3481 
Q 2900 3844 2670 4047 
Q 2441 4250 2034 4250 
Q 1625 4250 1398 4047 
Q 1172 3844 1172 3481 
z
" id="DejaVuSans-38" transform="scale(0.015625)"/>
       </defs>
       <use xlink:href="#DejaVuSans-38"/>
       <use x="63.623047" xlink:href="#DejaVuSans-30"/>
      </g>
     </g>
    </g>
    <g id="text_5">
     <!-- Average Keep Token Ratio (%) -->
     <g transform="translate(161.205312 335.860562)scale(0.1 -0.1)">
      <defs>
       <path d="M 2188 4044 
L 1331 1722 
L 3047 1722 
L 2188 4044 
z
M 1831 4666 
L 2547 4666 
L 4325 0 
L 3669 0 
L 3244 1197 
L 1141 1197 
L 716 0 
L 50 0 
L 1831 4666 
z
" id="DejaVuSans-41" transform="scale(0.015625)"/>
       <path d="M 191 3500 
L 800 3500 
L 1894 563 
L 2988 3500 
L 3597 3500 
L 2284 0 
L 1503 0 
L 191 3500 
z
" id="DejaVuSans-76" transform="scale(0.015625)"/>
       <path d="M 3597 1894 
L 3597 1613 
L 953 1613 
Q 991 1019 1311 708 
Q 1631 397 2203 397 
Q 2534 397 2845 478 
Q 3156 559 3463 722 
L 3463 178 
Q 3153 47 2828 -22 
Q 2503 -91 2169 -91 
Q 1331 -91 842 396 
Q 353 884 353 1716 
Q 353 2575 817 3079 
Q 1281 3584 2069 3584 
Q 2775 3584 3186 3129 
Q 3597 2675 3597 1894 
z
M 3022 2063 
Q 3016 2534 2758 2815 
Q 2500 3097 2075 3097 
Q 1594 3097 1305 2825 
Q 1016 2553 972 2059 
L 3022 2063 
z
" id="DejaVuSans-65" transform="scale(0.015625)"/>
       <path d="M 2631 2963 
Q 2534 3019 2420 3045 
Q 2306 3072 2169 3072 
Q 1681 3072 1420 2755 
Q 1159 2438 1159 1844 
L 1159 0 
L 581 0 
L 581 3500 
L 1159 3500 
L 1159 2956 
Q 1341 3275 1631 3429 
Q 1922 3584 2338 3584 
Q 2397 3584 2469 3576 
Q 2541 3569 2628 3553 
L 2631 2963 
z
" id="DejaVuSans-72" transform="scale(0.015625)"/>
       <path d="M 2194 1759 
Q 1497 1759 1228 1600 
Q 959 1441 959 1056 
Q 959 750 1161 570 
Q 1363 391 1709 391 
Q 2188 391 2477 730 
Q 2766 1069 2766 1631 
L 2766 1759 
L 2194 1759 
z
M 3341 1997 
L 3341 0 
L 2766 0 
L 2766 531 
Q 2569 213 2275 61 
Q 1981 -91 1556 -91 
Q 1019 -91 701 211 
Q 384 513 384 1019 
Q 384 1609 779 1909 
Q 1175 2209 1959 2209 
L 2766 2209 
L 2766 2266 
Q 2766 2663 2505 2880 
Q 2244 3097 1772 3097 
Q 1472 3097 1187 3025 
Q 903 2953 641 2809 
L 641 3341 
Q 956 3463 1253 3523 
Q 1550 3584 1831 3584 
Q 2591 3584 2966 3190 
Q 3341 2797 3341 1997 
z
" id="DejaVuSans-61" transform="scale(0.015625)"/>
       <path d="M 2906 1791 
Q 2906 2416 2648 2759 
Q 2391 3103 1925 3103 
Q 1463 3103 1205 2759 
Q 947 2416 947 1791 
Q 947 1169 1205 825 
Q 1463 481 1925 481 
Q 2391 481 2648 825 
Q 2906 1169 2906 1791 
z
M 3481 434 
Q 3481 -459 3084 -895 
Q 2688 -1331 1869 -1331 
Q 1566 -1331 1297 -1286 
Q 1028 -1241 775 -1147 
L 775 -588 
Q 1028 -725 1275 -790 
Q 1522 -856 1778 -856 
Q 2344 -856 2625 -561 
Q 2906 -266 2906 331 
L 2906 616 
Q 2728 306 2450 153 
Q 2172 0 1784 0 
Q 1141 0 747 490 
Q 353 981 353 1791 
Q 353 2603 747 3093 
Q 1141 3584 1784 3584 
Q 2172 3584 2450 3431 
Q 2728 3278 2906 2969 
L 2906 3500 
L 3481 3500 
L 3481 434 
z
" id="DejaVuSans-67" transform="scale(0.015625)"/>
       <path id="DejaVuSans-20" transform="scale(0.015625)"/>
       <path d="M 628 4666 
L 1259 4666 
L 1259 2694 
L 3353 4666 
L 4166 4666 
L 1850 2491 
L 4331 0 
L 3500 0 
L 1259 2247 
L 1259 0 
L 628 0 
L 628 4666 
z
" id="DejaVuSans-4b" transform="scale(0.015625)"/>
       <path d="M 1159 525 
L 1159 -1331 
L 581 -1331 
L 581 3500 
L 1159 3500 
L 1159 2969 
Q 1341 3281 1617 3432 
Q 1894 3584 2278 3584 
Q 2916 3584 3314 3078 
Q 3713 2572 3713 1747 
Q 3713 922 3314 415 
Q 2916 -91 2278 -91 
Q 1894 -91 1617 61 
Q 1341 213 1159 525 
z
M 3116 1747 
Q 3116 2381 2855 2742 
Q 2594 3103 2138 3103 
Q 1681 3103 1420 2742 
Q 1159 2381 1159 1747 
Q 1159 1113 1420 752 
Q 1681 391 2138 391 
Q 2594 391 2855 752 
Q 3116 1113 3116 1747 
z
" id="DejaVuSans-70" transform="scale(0.015625)"/>
       <path d="M -19 4666 
L 3928 4666 
L 3928 4134 
L 2272 4134 
L 2272 0 
L 1638 0 
L 1638 4134 
L -19 4134 
L -19 4666 
z
" id="DejaVuSans-54" transform="scale(0.015625)"/>
       <path d="M 1959 3097 
Q 1497 3097 1228 2736 
Q 959 2375 959 1747 
Q 959 1119 1226 758 
Q 1494 397 1959 397 
Q 2419 397 2687 759 
Q 2956 1122 2956 1747 
Q 2956 2369 2687 2733 
Q 2419 3097 1959 3097 
z
M 1959 3584 
Q 2709 3584 3137 3096 
Q 3566 2609 3566 1747 
Q 3566 888 3137 398 
Q 2709 -91 1959 -91 
Q 1206 -91 779 398 
Q 353 888 353 1747 
Q 353 2609 779 3096 
Q 1206 3584 1959 3584 
z
" id="DejaVuSans-6f" transform="scale(0.015625)"/>
       <path d="M 581 4863 
L 1159 4863 
L 1159 1991 
L 2875 3500 
L 3609 3500 
L 1753 1863 
L 3688 0 
L 2938 0 
L 1159 1709 
L 1159 0 
L 581 0 
L 581 4863 
z
" id="DejaVuSans-6b" transform="scale(0.015625)"/>
       <path d="M 3513 2113 
L 3513 0 
L 2938 0 
L 2938 2094 
Q 2938 2591 2744 2837 
Q 2550 3084 2163 3084 
Q 1697 3084 1428 2787 
Q 1159 2491 1159 1978 
L 1159 0 
L 581 0 
L 581 3500 
L 1159 3500 
L 1159 2956 
Q 1366 3272 1645 3428 
Q 1925 3584 2291 3584 
Q 2894 3584 3203 3211 
Q 3513 2838 3513 2113 
z
" id="DejaVuSans-6e" transform="scale(0.015625)"/>
       <path d="M 2841 2188 
Q 3044 2119 3236 1894 
Q 3428 1669 3622 1275 
L 4263 0 
L 3584 0 
L 2988 1197 
Q 2756 1666 2539 1819 
Q 2322 1972 1947 1972 
L 1259 1972 
L 1259 0 
L 628 0 
L 628 4666 
L 2053 4666 
Q 2853 4666 3247 4331 
Q 3641 3997 3641 3322 
Q 3641 2881 3436 2590 
Q 3231 2300 2841 2188 
z
M 1259 4147 
L 1259 2491 
L 2053 2491 
Q 2509 2491 2742 2702 
Q 2975 2913 2975 3322 
Q 2975 3731 2742 3939 
Q 2509 4147 2053 4147 
L 1259 4147 
z
" id="DejaVuSans-52" transform="scale(0.015625)"/>
       <path d="M 1172 4494 
L 1172 3500 
L 2356 3500 
L 2356 3053 
L 1172 3053 
L 1172 1153 
Q 1172 725 1289 603 
Q 1406 481 1766 481 
L 2356 481 
L 2356 0 
L 1766 0 
Q 1100 0 847 248 
Q 594 497 594 1153 
L 594 3053 
L 172 3053 
L 172 3500 
L 594 3500 
L 594 4494 
L 1172 4494 
z
" id="DejaVuSans-74" transform="scale(0.015625)"/>
       <path d="M 603 3500 
L 1178 3500 
L 1178 0 
L 603 0 
L 603 3500 
z
M 603 4863 
L 1178 4863 
L 1178 4134 
L 603 4134 
L 603 4863 
z
" id="DejaVuSans-69" transform="scale(0.015625)"/>
       <path d="M 1984 4856 
Q 1566 4138 1362 3434 
Q 1159 2731 1159 2009 
Q 1159 1288 1364 580 
Q 1569 -128 1984 -844 
L 1484 -844 
Q 1016 -109 783 600 
Q 550 1309 550 2009 
Q 550 2706 781 3412 
Q 1013 4119 1484 4856 
L 1984 4856 
z
" id="DejaVuSans-28" transform="scale(0.015625)"/>
       <path d="M 4653 2053 
Q 4381 2053 4226 1822 
Q 4072 1591 4072 1178 
Q 4072 772 4226 539 
Q 4381 306 4653 306 
Q 4919 306 5073 539 
Q 5228 772 5228 1178 
Q 5228 1588 5073 1820 
Q 4919 2053 4653 2053 
z
M 4653 2450 
Q 5147 2450 5437 2106 
Q 5728 1763 5728 1178 
Q 5728 594 5436 251 
Q 5144 -91 4653 -91 
Q 4153 -91 3862 251 
Q 3572 594 3572 1178 
Q 3572 1766 3864 2108 
Q 4156 2450 4653 2450 
z
M 1428 4353 
Q 1159 4353 1004 4120 
Q 850 3888 850 3481 
Q 850 3069 1003 2837 
Q 1156 2606 1428 2606 
Q 1700 2606 1854 2837 
Q 2009 3069 2009 3481 
Q 2009 3884 1853 4118 
Q 1697 4353 1428 4353 
z
M 4250 4750 
L 4750 4750 
L 1831 -91 
L 1331 -91 
L 4250 4750 
z
M 1428 4750 
Q 1922 4750 2215 4408 
Q 2509 4066 2509 3481 
Q 2509 2891 2217 2550 
Q 1925 2209 1428 2209 
Q 931 2209 642 2551 
Q 353 2894 353 3481 
Q 353 4063 643 4406 
Q 934 4750 1428 4750 
z
" id="DejaVuSans-25" transform="scale(0.015625)"/>
       <path d="M 513 4856 
L 1013 4856 
Q 1481 4119 1714 3412 
Q 1947 2706 1947 2009 
Q 1947 1309 1714 600 
Q 1481 -109 1013 -844 
L 513 -844 
Q 928 -128 1133 580 
Q 1338 1288 1338 2009 
Q 1338 2731 1133 3434 
Q 928 4138 513 4856 
z
" id="DejaVuSans-29" transform="scale(0.015625)"/>
      </defs>
      <use xlink:href="#DejaVuSans-41"/>
      <use x="62.533203" xlink:href="#DejaVuSans-76"/>
      <use x="121.712891" xlink:href="#DejaVuSans-65"/>
      <use x="183.236328" xlink:href="#DejaVuSans-72"/>
      <use x="224.349609" xlink:href="#DejaVuSans-61"/>
      <use x="285.628906" xlink:href="#DejaVuSans-67"/>
      <use x="349.105469" xlink:href="#DejaVuSans-65"/>
      <use x="410.628906" xlink:href="#DejaVuSans-20"/>
      <use x="442.416016" xlink:href="#DejaVuSans-4b"/>
      <use x="502.992188" xlink:href="#DejaVuSans-65"/>
      <use x="564.515625" xlink:href="#DejaVuSans-65"/>
      <use x="626.039062" xlink:href="#DejaVuSans-70"/>
      <use x="689.515625" xlink:href="#DejaVuSans-20"/>
      <use x="721.302734" xlink:href="#DejaVuSans-54"/>
      <use x="765.386719" xlink:href="#DejaVuSans-6f"/>
      <use x="826.568359" xlink:href="#DejaVuSans-6b"/>
      <use x="880.853516" xlink:href="#DejaVuSans-65"/>
      <use x="942.376953" xlink:href="#DejaVuSans-6e"/>
      <use x="1005.755859" xlink:href="#DejaVuSans-20"/>
      <use x="1037.542969" xlink:href="#DejaVuSans-52"/>
      <use x="1104.775391" xlink:href="#DejaVuSans-61"/>
      <use x="1166.054688" xlink:href="#DejaVuSans-74"/>
      <use x="1205.263672" xlink:href="#DejaVuSans-69"/>
      <use x="1233.046875" xlink:href="#DejaVuSans-6f"/>
      <use x="1294.228516" xlink:href="#DejaVuSans-20"/>
      <use x="1326.015625" xlink:href="#DejaVuSans-28"/>
      <use x="1365.029297" xlink:href="#DejaVuSans-25"/>
      <use x="1460.048828" xlink:href="#DejaVuSans-29"/>
     </g>
    </g>
   </g>
   <g id="matplotlib.axis_2">
    <g id="ytick_1">
     <g id="line2d_12">
      <path clip-path="url(#p49e6ce0124)" d="M 57.6 293.924811 
L 414.72 293.924811 
" style="fill:none;stroke:#b0b0b0;stroke-linecap:square;stroke-width:0.8;"/>
     </g>
     <g id="line2d_13">
      <defs>
       <path d="M 0 0 
L -3.5 0 
" id="m06bf3eb2b4" style="stroke:#000000;stroke-width:0.8;"/>
      </defs>
      <g>
       <use style="stroke:#000000;stroke-width:0.8;" x="57.6" xlink:href="#m06bf3eb2b4" y="293.924811"/>
      </g>
     </g>
     <g id="text_6">
      <!-- 66 -->
      <g transform="translate(37.875 297.72403)scale(0.1 -0.1)">
       <use xlink:href="#DejaVuSans-36"/>
       <use x="63.623047" xlink:href="#DejaVuSans-36"/>
      </g>
     </g>
    </g>
    <g id="ytick_2">
     <g id="line2d_14">
      <path clip-path="url(#p49e6ce0124)" d="M 57.6 259.187282 
L 414.72 259.187282 
" style="fill:none;stroke:#b0b0b0;stroke-linecap:square;stroke-width:0.8;"/>
     </g>
     <g id="line2d_15">
      <g>
       <use style="stroke:#000000;stroke-width:0.8;" x="57.6" xlink:href="#m06bf3eb2b4" y="259.187282"/>
      </g>
     </g>
     <g id="text_7">
      <!-- 68 -->
      <g transform="translate(37.875 262.986501)scale(0.1 -0.1)">
       <use xlink:href="#DejaVuSans-36"/>
       <use x="63.623047" xlink:href="#DejaVuSans-38"/>
      </g>
     </g>
    </g>
    <g id="ytick_3">
     <g id="line2d_16">
      <path clip-path="url(#p49e6ce0124)" d="M 57.6 224.449752 
L 414.72 224.449752 
" style="fill:none;stroke:#b0b0b0;stroke-linecap:square;stroke-width:0.8;"/>
     </g>
     <g id="line2d_17">
      <g>
       <use style="stroke:#000000;stroke-width:0.8;" x="57.6" xlink:href="#m06bf3eb2b4" y="224.449752"/>
      </g>
     </g>
     <g id="text_8">
      <!-- 70 -->
      <g transform="translate(37.875 228.248971)scale(0.1 -0.1)">
       <defs>
        <path d="M 525 4666 
L 3525 4666 
L 3525 4397 
L 1831 0 
L 1172 0 
L 2766 4134 
L 525 4134 
L 525 4666 
z
" id="DejaVuSans-37" transform="scale(0.015625)"/>
       </defs>
       <use xlink:href="#DejaVuSans-37"/>
       <use x="63.623047" xlink:href="#DejaVuSans-30"/>
      </g>
     </g>
    </g>
    <g id="ytick_4">
     <g id="line2d_18">
      <path clip-path="url(#p49e6ce0124)" d="M 57.6 189.712223 
L 414.72 189.712223 
" style="fill:none;stroke:#b0b0b0;stroke-linecap:square;stroke-width:0.8;"/>
     </g>
     <g id="line2d_19">
      <g>
       <use style="stroke:#000000;stroke-width:0.8;" x="57.6" xlink:href="#m06bf3eb2b4" y="189.712223"/>
      </g>
     </g>
     <g id="text_9">
      <!-- 72 -->
      <g transform="translate(37.875 193.511442)scale(0.1 -0.1)">
       <use xlink:href="#DejaVuSans-37"/>
       <use x="63.623047" xlink:href="#DejaVuSans-32"/>
      </g>
     </g>
    </g>
    <g id="ytick_5">
     <g id="line2d_20">
      <path clip-path="url(#p49e6ce0124)" d="M 57.6 154.974694 
L 414.72 154.974694 
" style="fill:none;stroke:#b0b0b0;stroke-linecap:square;stroke-width:0.8;"/>
     </g>
     <g id="line2d_21">
      <g>
       <use style="stroke:#000000;stroke-width:0.8;" x="57.6" xlink:href="#m06bf3eb2b4" y="154.974694"/>
      </g>
     </g>
     <g id="text_10">
      <!-- 74 -->
      <g transform="translate(37.875 158.773912)scale(0.1 -0.1)">
       <use xlink:href="#DejaVuSans-37"/>
       <use x="63.623047" xlink:href="#DejaVuSans-34"/>
      </g>
     </g>
    </g>
    <g id="ytick_6">
     <g id="line2d_22">
      <path clip-path="url(#p49e6ce0124)" d="M 57.6 120.237164 
L 414.72 120.237164 
" style="fill:none;stroke:#b0b0b0;stroke-linecap:square;stroke-width:0.8;"/>
     </g>
     <g id="line2d_23">
      <g>
       <use style="stroke:#000000;stroke-width:0.8;" x="57.6" xlink:href="#m06bf3eb2b4" y="120.237164"/>
      </g>
     </g>
     <g id="text_11">
      <!-- 76 -->
      <g transform="translate(37.875 124.036383)scale(0.1 -0.1)">
       <use xlink:href="#DejaVuSans-37"/>
       <use x="63.623047" xlink:href="#DejaVuSans-36"/>
      </g>
     </g>
    </g>
    <g id="ytick_7">
     <g id="line2d_24">
      <path clip-path="url(#p49e6ce0124)" d="M 57.6 85.499635 
L 414.72 85.499635 
" style="fill:none;stroke:#b0b0b0;stroke-linecap:square;stroke-width:0.8;"/>
     </g>
     <g id="line2d_25">
      <g>
       <use style="stroke:#000000;stroke-width:0.8;" x="57.6" xlink:href="#m06bf3eb2b4" y="85.499635"/>
      </g>
     </g>
     <g id="text_12">
      <!-- 78 -->
      <g transform="translate(37.875 89.298854)scale(0.1 -0.1)">
       <use xlink:href="#DejaVuSans-37"/>
       <use x="63.623047" xlink:href="#DejaVuSans-38"/>
      </g>
     </g>
    </g>
    <g id="ytick_8">
     <g id="line2d_26">
      <path clip-path="url(#p49e6ce0124)" d="M 57.6 50.762106 
L 414.72 50.762106 
" style="fill:none;stroke:#b0b0b0;stroke-linecap:square;stroke-width:0.8;"/>
     </g>
     <g id="line2d_27">
      <g>
       <use style="stroke:#000000;stroke-width:0.8;" x="57.6" xlink:href="#m06bf3eb2b4" y="50.762106"/>
      </g>
     </g>
     <g id="text_13">
      <!-- 80 -->
      <g transform="translate(37.875 54.561324)scale(0.1 -0.1)">
       <use xlink:href="#DejaVuSans-38"/>
       <use x="63.623047" xlink:href="#DejaVuSans-30"/>
      </g>
     </g>
    </g>
    <g id="text_14">
     <!-- Top-1 Accuracy (%) -->
     <g transform="translate(31.795312 222.60925)rotate(-90)scale(0.1 -0.1)">
      <defs>
       <path d="M 313 2009 
L 1997 2009 
L 1997 1497 
L 313 1497 
L 313 2009 
z
" id="DejaVuSans-2d" transform="scale(0.015625)"/>
       <path d="M 794 531 
L 1825 531 
L 1825 4091 
L 703 3866 
L 703 4441 
L 1819 4666 
L 2450 4666 
L 2450 531 
L 3481 531 
L 3481 0 
L 794 0 
L 794 531 
z
" id="DejaVuSans-31" transform="scale(0.015625)"/>
       <path d="M 3122 3366 
L 3122 2828 
Q 2878 2963 2633 3030 
Q 2388 3097 2138 3097 
Q 1578 3097 1268 2742 
Q 959 2388 959 1747 
Q 959 1106 1268 751 
Q 1578 397 2138 397 
Q 2388 397 2633 464 
Q 2878 531 3122 666 
L 3122 134 
Q 2881 22 2623 -34 
Q 2366 -91 2075 -91 
Q 1284 -91 818 406 
Q 353 903 353 1747 
Q 353 2603 823 3093 
Q 1294 3584 2113 3584 
Q 2378 3584 2631 3529 
Q 2884 3475 3122 3366 
z
" id="DejaVuSans-63" transform="scale(0.015625)"/>
       <path d="M 544 1381 
L 544 3500 
L 1119 3500 
L 1119 1403 
Q 1119 906 1312 657 
Q 1506 409 1894 409 
Q 2359 409 2629 706 
Q 2900 1003 2900 1516 
L 2900 3500 
L 3475 3500 
L 3475 0 
L 2900 0 
L 2900 538 
Q 2691 219 2414 64 
Q 2138 -91 1772 -91 
Q 1169 -91 856 284 
Q 544 659 544 1381 
z
M 1991 3584 
L 1991 3584 
z
" id="DejaVuSans-75" transform="scale(0.015625)"/>
       <path d="M 2059 -325 
Q 1816 -950 1584 -1140 
Q 1353 -1331 966 -1331 
L 506 -1331 
L 506 -850 
L 844 -850 
Q 1081 -850 1212 -737 
Q 1344 -625 1503 -206 
L 1606 56 
L 191 3500 
L 800 3500 
L 1894 763 
L 2988 3500 
L 3597 3500 
L 2059 -325 
z
" id="DejaVuSans-79" transform="scale(0.015625)"/>
      </defs>
      <use xlink:href="#DejaVuSans-54"/>
      <use x="44.083984" xlink:href="#DejaVuSans-6f"/>
      <use x="105.265625" xlink:href="#DejaVuSans-70"/>
      <use x="168.742188" xlink:href="#DejaVuSans-2d"/>
      <use x="204.826172" xlink:href="#DejaVuSans-31"/>
      <use x="268.449219" xlink:href="#DejaVuSans-20"/>
      <use x="300.236328" xlink:href="#DejaVuSans-41"/>
      <use x="366.894531" xlink:href="#DejaVuSans-63"/>
      <use x="421.875" xlink:href="#DejaVuSans-63"/>
      <use x="476.855469" xlink:href="#DejaVuSans-75"/>
      <use x="540.234375" xlink:href="#DejaVuSans-72"/>
      <use x="581.347656" xlink:href="#DejaVuSans-61"/>
      <use x="642.626953" xlink:href="#DejaVuSans-63"/>
      <use x="697.607422" xlink:href="#DejaVuSans-79"/>
      <use x="756.787109" xlink:href="#DejaVuSans-20"/>
      <use x="788.574219" xlink:href="#DejaVuSans-28"/>
      <use x="827.587891" xlink:href="#DejaVuSans-25"/>
      <use x="922.607422" xlink:href="#DejaVuSans-29"/>
     </g>
    </g>
   </g>
   <g id="line2d_28">
    <path clip-path="url(#p49e6ce0124)" d="M 74.258066 269.365341 
L 89.479451 207.636749 
L 108.124617 155.808355 
L 123.243541 129.685731 
L 144.518069 107.731614 
L 196.037068 81.226878 
" style="fill:none;stroke:#ff0000;stroke-dasharray:4.44,1.92;stroke-dashoffset:0;stroke-width:1.2;"/>
    <defs>
     <path d="M 0 -3 
L -3 3 
L 3 3 
z
" id="m69c8fdb9cd" style="stroke:#ff0000;stroke-linejoin:miter;"/>
    </defs>
    <g clip-path="url(#p49e6ce0124)">
     <use style="fill:#ff0000;stroke:#ff0000;stroke-linejoin:miter;" x="74.258066" xlink:href="#m69c8fdb9cd" y="269.365341"/>
     <use style="fill:#ff0000;stroke:#ff0000;stroke-linejoin:miter;" x="89.479451" xlink:href="#m69c8fdb9cd" y="207.636749"/>
     <use style="fill:#ff0000;stroke:#ff0000;stroke-linejoin:miter;" x="108.124617" xlink:href="#m69c8fdb9cd" y="155.808355"/>
     <use style="fill:#ff0000;stroke:#ff0000;stroke-linejoin:miter;" x="123.243541" xlink:href="#m69c8fdb9cd" y="129.685731"/>
     <use style="fill:#ff0000;stroke:#ff0000;stroke-linejoin:miter;" x="144.518069" xlink:href="#m69c8fdb9cd" y="107.731614"/>
     <use style="fill:#ff0000;stroke:#ff0000;stroke-linejoin:miter;" x="196.037068" xlink:href="#m69c8fdb9cd" y="81.226878"/>
    </g>
   </g>
   <g id="patch_3">
    <path d="M 57.6 307.584 
L 57.6 41.472 
" style="fill:none;stroke:#000000;stroke-linecap:square;stroke-linejoin:miter;stroke-width:0.8;"/>
   </g>
   <g id="patch_4">
    <path d="M 414.72 307.584 
L 414.72 41.472 
" style="fill:none;stroke:#000000;stroke-linecap:square;stroke-linejoin:miter;stroke-width:0.8;"/>
   </g>
   <g id="patch_5">
    <path d="M 57.6 307.584 
L 414.72 307.584 
" style="fill:none;stroke:#000000;stroke-linecap:square;stroke-linejoin:miter;stroke-width:0.8;"/>
   </g>
   <g id="patch_6">
    <path d="M 57.6 41.472 
L 414.72 41.472 
" style="fill:none;stroke:#000000;stroke-linecap:square;stroke-linejoin:miter;stroke-width:0.8;"/>
   </g>
   <g id="text_15">
    <!-- ImageNet-1k -->
    <g transform="translate(197.378437 35.472)scale(0.12 -0.12)">
     <defs>
      <path d="M 628 4666 
L 1259 4666 
L 1259 0 
L 628 0 
L 628 4666 
z
" id="DejaVuSans-49" transform="scale(0.015625)"/>
      <path d="M 3328 2828 
Q 3544 3216 3844 3400 
Q 4144 3584 4550 3584 
Q 5097 3584 5394 3201 
Q 5691 2819 5691 2113 
L 5691 0 
L 5113 0 
L 5113 2094 
Q 5113 2597 4934 2840 
Q 4756 3084 4391 3084 
Q 3944 3084 3684 2787 
Q 3425 2491 3425 1978 
L 3425 0 
L 2847 0 
L 2847 2094 
Q 2847 2600 2669 2842 
Q 2491 3084 2119 3084 
Q 1678 3084 1418 2786 
Q 1159 2488 1159 1978 
L 1159 0 
L 581 0 
L 581 3500 
L 1159 3500 
L 1159 2956 
Q 1356 3278 1631 3431 
Q 1906 3584 2284 3584 
Q 2666 3584 2933 3390 
Q 3200 3197 3328 2828 
z
" id="DejaVuSans-6d" transform="scale(0.015625)"/>
      <path d="M 628 4666 
L 1478 4666 
L 3547 763 
L 3547 4666 
L 4159 4666 
L 4159 0 
L 3309 0 
L 1241 3903 
L 1241 0 
L 628 0 
L 628 4666 
z
" id="DejaVuSans-4e" transform="scale(0.015625)"/>
     </defs>
     <use xlink:href="#DejaVuSans-49"/>
     <use x="29.492188" xlink:href="#DejaVuSans-6d"/>
     <use x="126.904297" xlink:href="#DejaVuSans-61"/>
     <use x="188.183594" xlink:href="#DejaVuSans-67"/>
     <use x="251.660156" xlink:href="#DejaVuSans-65"/>
     <use x="313.183594" xlink:href="#DejaVuSans-4e"/>
     <use x="387.988281" xlink:href="#DejaVuSans-65"/>
     <use x="449.511719" xlink:href="#DejaVuSans-74"/>
     <use x="488.720703" xlink:href="#DejaVuSans-2d"/>
     <use x="524.804688" xlink:href="#DejaVuSans-31"/>
     <use x="588.427734" xlink:href="#DejaVuSans-6b"/>
    </g>
   </g>
   <g id="legend_1">
    <g id="patch_7">
     <path d="M 231.57 303.084 
L 408.42 303.084 
Q 410.22 303.084 410.22 301.284 
L 410.22 209.711813 
Q 410.22 207.911812 408.42 207.911812 
L 231.57 207.911812 
Q 229.77 207.911812 229.77 209.711813 
L 229.77 301.284 
Q 229.77 303.084 231.57 303.084 
z
" style="fill:#ffffff;opacity:0.8;stroke:#cccccc;stroke-linejoin:miter;"/>
    </g>
    <g id="line2d_29">
     <path d="M 233.37 215.200406 
L 251.37 215.200406 
" style="fill:none;stroke:#ff0000;stroke-linecap:square;stroke-width:1.2;"/>
    </g>
    <g id="line2d_30">
     <g>
      <use style="fill:#ff0000;stroke:#ff0000;stroke-linejoin:miter;" x="242.37" xlink:href="#m69c8fdb9cd" y="215.200406"/>
     </g>
    </g>
    <g id="text_16">
     <!-- STTABT (Concrete, with train) -->
     <g transform="translate(258.57 218.350406)scale(0.09 -0.09)">
      <defs>
       <path d="M 3425 4513 
L 3425 3897 
Q 3066 4069 2747 4153 
Q 2428 4238 2131 4238 
Q 1616 4238 1336 4038 
Q 1056 3838 1056 3469 
Q 1056 3159 1242 3001 
Q 1428 2844 1947 2747 
L 2328 2669 
Q 3034 2534 3370 2195 
Q 3706 1856 3706 1288 
Q 3706 609 3251 259 
Q 2797 -91 1919 -91 
Q 1588 -91 1214 -16 
Q 841 59 441 206 
L 441 856 
Q 825 641 1194 531 
Q 1563 422 1919 422 
Q 2459 422 2753 634 
Q 3047 847 3047 1241 
Q 3047 1584 2836 1778 
Q 2625 1972 2144 2069 
L 1759 2144 
Q 1053 2284 737 2584 
Q 422 2884 422 3419 
Q 422 4038 858 4394 
Q 1294 4750 2059 4750 
Q 2388 4750 2728 4690 
Q 3069 4631 3425 4513 
z
" id="DejaVuSans-53" transform="scale(0.015625)"/>
       <path d="M 1259 2228 
L 1259 519 
L 2272 519 
Q 2781 519 3026 730 
Q 3272 941 3272 1375 
Q 3272 1813 3026 2020 
Q 2781 2228 2272 2228 
L 1259 2228 
z
M 1259 4147 
L 1259 2741 
L 2194 2741 
Q 2656 2741 2882 2914 
Q 3109 3088 3109 3444 
Q 3109 3797 2882 3972 
Q 2656 4147 2194 4147 
L 1259 4147 
z
M 628 4666 
L 2241 4666 
Q 2963 4666 3353 4366 
Q 3744 4066 3744 3513 
Q 3744 3084 3544 2831 
Q 3344 2578 2956 2516 
Q 3422 2416 3680 2098 
Q 3938 1781 3938 1306 
Q 3938 681 3513 340 
Q 3088 0 2303 0 
L 628 0 
L 628 4666 
z
" id="DejaVuSans-42" transform="scale(0.015625)"/>
       <path d="M 4122 4306 
L 4122 3641 
Q 3803 3938 3442 4084 
Q 3081 4231 2675 4231 
Q 1875 4231 1450 3742 
Q 1025 3253 1025 2328 
Q 1025 1406 1450 917 
Q 1875 428 2675 428 
Q 3081 428 3442 575 
Q 3803 722 4122 1019 
L 4122 359 
Q 3791 134 3420 21 
Q 3050 -91 2638 -91 
Q 1578 -91 968 557 
Q 359 1206 359 2328 
Q 359 3453 968 4101 
Q 1578 4750 2638 4750 
Q 3056 4750 3426 4639 
Q 3797 4528 4122 4306 
z
" id="DejaVuSans-43" transform="scale(0.015625)"/>
       <path d="M 750 794 
L 1409 794 
L 1409 256 
L 897 -744 
L 494 -744 
L 750 256 
L 750 794 
z
" id="DejaVuSans-2c" transform="scale(0.015625)"/>
       <path d="M 269 3500 
L 844 3500 
L 1563 769 
L 2278 3500 
L 2956 3500 
L 3675 769 
L 4391 3500 
L 4966 3500 
L 4050 0 
L 3372 0 
L 2619 2869 
L 1863 0 
L 1184 0 
L 269 3500 
z
" id="DejaVuSans-77" transform="scale(0.015625)"/>
       <path d="M 3513 2113 
L 3513 0 
L 2938 0 
L 2938 2094 
Q 2938 2591 2744 2837 
Q 2550 3084 2163 3084 
Q 1697 3084 1428 2787 
Q 1159 2491 1159 1978 
L 1159 0 
L 581 0 
L 581 4863 
L 1159 4863 
L 1159 2956 
Q 1366 3272 1645 3428 
Q 1925 3584 2291 3584 
Q 2894 3584 3203 3211 
Q 3513 2838 3513 2113 
z
" id="DejaVuSans-68" transform="scale(0.015625)"/>
      </defs>
      <use xlink:href="#DejaVuSans-53"/>
      <use x="63.476562" xlink:href="#DejaVuSans-54"/>
      <use x="122.810547" xlink:href="#DejaVuSans-54"/>
      <use x="176.144531" xlink:href="#DejaVuSans-41"/>
      <use x="244.552734" xlink:href="#DejaVuSans-42"/>
      <use x="313.15625" xlink:href="#DejaVuSans-54"/>
      <use x="374.240234" xlink:href="#DejaVuSans-20"/>
      <use x="406.027344" xlink:href="#DejaVuSans-28"/>
      <use x="445.041016" xlink:href="#DejaVuSans-43"/>
      <use x="514.865234" xlink:href="#DejaVuSans-6f"/>
      <use x="576.046875" xlink:href="#DejaVuSans-6e"/>
      <use x="639.425781" xlink:href="#DejaVuSans-63"/>
      <use x="694.40625" xlink:href="#DejaVuSans-72"/>
      <use x="733.269531" xlink:href="#DejaVuSans-65"/>
      <use x="794.792969" xlink:href="#DejaVuSans-74"/>
      <use x="834.001953" xlink:href="#DejaVuSans-65"/>
      <use x="895.525391" xlink:href="#DejaVuSans-2c"/>
      <use x="927.3125" xlink:href="#DejaVuSans-20"/>
      <use x="959.099609" xlink:href="#DejaVuSans-77"/>
      <use x="1040.886719" xlink:href="#DejaVuSans-69"/>
      <use x="1068.669922" xlink:href="#DejaVuSans-74"/>
      <use x="1107.878906" xlink:href="#DejaVuSans-68"/>
      <use x="1171.257812" xlink:href="#DejaVuSans-20"/>
      <use x="1203.044922" xlink:href="#DejaVuSans-74"/>
      <use x="1242.253906" xlink:href="#DejaVuSans-72"/>
      <use x="1283.367188" xlink:href="#DejaVuSans-61"/>
      <use x="1344.646484" xlink:href="#DejaVuSans-69"/>
      <use x="1372.429688" xlink:href="#DejaVuSans-6e"/>
      <use x="1435.808594" xlink:href="#DejaVuSans-29"/>
     </g>
    </g>
    <g id="line2d_31">
     <path d="M 233.37 228.410719 
L 251.37 228.410719 
" style="fill:none;stroke:#ff0000;stroke-dasharray:4.44,1.92;stroke-dashoffset:0;stroke-width:1.2;"/>
    </g>
    <g id="line2d_32">
     <g>
      <use style="fill:#ff0000;stroke:#ff0000;stroke-linejoin:miter;" x="242.37" xlink:href="#m69c8fdb9cd" y="228.410719"/>
     </g>
    </g>
    <g id="text_17">
     <!-- STTABT$_{ema}$ (Concrete, with train) -->
     <g transform="translate(258.57 231.560719)scale(0.09 -0.09)">
      <defs>
       <path d="M 3078 2063 
Q 3088 2113 3092 2166 
Q 3097 2219 3097 2272 
Q 3097 2653 2873 2875 
Q 2650 3097 2266 3097 
Q 1838 3097 1509 2826 
Q 1181 2556 1013 2059 
L 3078 2063 
z
M 3578 1613 
L 903 1613 
Q 884 1494 878 1425 
Q 872 1356 872 1306 
Q 872 872 1139 634 
Q 1406 397 1894 397 
Q 2269 397 2603 481 
Q 2938 566 3225 728 
L 3116 159 
Q 2806 34 2476 -28 
Q 2147 -91 1806 -91 
Q 1078 -91 686 257 
Q 294 606 294 1247 
Q 294 1794 489 2264 
Q 684 2734 1063 3103 
Q 1306 3334 1642 3459 
Q 1978 3584 2356 3584 
Q 2950 3584 3301 3228 
Q 3653 2872 3653 2272 
Q 3653 2128 3634 1964 
Q 3616 1800 3578 1613 
z
" id="DejaVuSans-Oblique-65" transform="scale(0.015625)"/>
       <path d="M 5747 2113 
L 5338 0 
L 4763 0 
L 5166 2094 
Q 5191 2228 5203 2325 
Q 5216 2422 5216 2491 
Q 5216 2772 5059 2928 
Q 4903 3084 4622 3084 
Q 4203 3084 3875 2770 
Q 3547 2456 3450 1953 
L 3066 0 
L 2491 0 
L 2900 2094 
Q 2925 2209 2937 2307 
Q 2950 2406 2950 2484 
Q 2950 2769 2794 2926 
Q 2638 3084 2363 3084 
Q 1938 3084 1609 2770 
Q 1281 2456 1184 1953 
L 800 0 
L 225 0 
L 909 3500 
L 1484 3500 
L 1375 2956 
Q 1609 3263 1923 3423 
Q 2238 3584 2597 3584 
Q 2978 3584 3223 3384 
Q 3469 3184 3519 2828 
Q 3781 3197 4126 3390 
Q 4472 3584 4856 3584 
Q 5306 3584 5551 3325 
Q 5797 3066 5797 2591 
Q 5797 2488 5784 2364 
Q 5772 2241 5747 2113 
z
" id="DejaVuSans-Oblique-6d" transform="scale(0.015625)"/>
       <path d="M 3438 1997 
L 3047 0 
L 2472 0 
L 2578 531 
Q 2325 219 2001 64 
Q 1678 -91 1281 -91 
Q 834 -91 548 182 
Q 263 456 263 884 
Q 263 1497 752 1853 
Q 1241 2209 2100 2209 
L 2900 2209 
L 2931 2363 
Q 2938 2388 2941 2417 
Q 2944 2447 2944 2509 
Q 2944 2788 2717 2942 
Q 2491 3097 2081 3097 
Q 1800 3097 1504 3025 
Q 1209 2953 897 2809 
L 997 3341 
Q 1322 3463 1633 3523 
Q 1944 3584 2234 3584 
Q 2853 3584 3176 3315 
Q 3500 3047 3500 2534 
Q 3500 2431 3484 2292 
Q 3469 2153 3438 1997 
z
M 2816 1759 
L 2241 1759 
Q 1534 1759 1195 1570 
Q 856 1381 856 984 
Q 856 709 1029 553 
Q 1203 397 1509 397 
Q 1978 397 2328 733 
Q 2678 1069 2791 1631 
L 2816 1759 
z
" id="DejaVuSans-Oblique-61" transform="scale(0.015625)"/>
      </defs>
      <use transform="translate(0 0.015625)" xlink:href="#DejaVuSans-53"/>
      <use transform="translate(63.476562 0.015625)" xlink:href="#DejaVuSans-54"/>
      <use transform="translate(124.560547 0.015625)" xlink:href="#DejaVuSans-54"/>
      <use transform="translate(185.644531 0.015625)" xlink:href="#DejaVuSans-41"/>
      <use transform="translate(254.052734 0.015625)" xlink:href="#DejaVuSans-42"/>
      <use transform="translate(322.65625 0.015625)" xlink:href="#DejaVuSans-54"/>
      <use transform="translate(384.697266 -16.390625)scale(0.7)" xlink:href="#DejaVuSans-Oblique-65"/>
      <use transform="translate(427.763672 -16.390625)scale(0.7)" xlink:href="#DejaVuSans-Oblique-6d"/>
      <use transform="translate(495.952148 -16.390625)scale(0.7)" xlink:href="#DejaVuSans-Oblique-61"/>
      <use transform="translate(541.582031 0.015625)" xlink:href="#DejaVuSans-20"/>
      <use transform="translate(573.369141 0.015625)" xlink:href="#DejaVuSans-28"/>
      <use transform="translate(612.382812 0.015625)" xlink:href="#DejaVuSans-43"/>
      <use transform="translate(682.207031 0.015625)" xlink:href="#DejaVuSans-6f"/>
      <use transform="translate(743.388672 0.015625)" xlink:href="#DejaVuSans-6e"/>
      <use transform="translate(806.767578 0.015625)" xlink:href="#DejaVuSans-63"/>
      <use transform="translate(861.748047 0.015625)" xlink:href="#DejaVuSans-72"/>
      <use transform="translate(902.861328 0.015625)" xlink:href="#DejaVuSans-65"/>
      <use transform="translate(964.384766 0.015625)" xlink:href="#DejaVuSans-74"/>
      <use transform="translate(1003.59375 0.015625)" xlink:href="#DejaVuSans-65"/>
      <use transform="translate(1065.117188 0.015625)" xlink:href="#DejaVuSans-2c"/>
      <use transform="translate(1096.904297 0.015625)" xlink:href="#DejaVuSans-20"/>
      <use transform="translate(1128.691406 0.015625)" xlink:href="#DejaVuSans-77"/>
      <use transform="translate(1210.478516 0.015625)" xlink:href="#DejaVuSans-69"/>
      <use transform="translate(1238.261719 0.015625)" xlink:href="#DejaVuSans-74"/>
      <use transform="translate(1277.470703 0.015625)" xlink:href="#DejaVuSans-68"/>
      <use transform="translate(1340.849609 0.015625)" xlink:href="#DejaVuSans-20"/>
      <use transform="translate(1372.636719 0.015625)" xlink:href="#DejaVuSans-74"/>
      <use transform="translate(1411.845703 0.015625)" xlink:href="#DejaVuSans-72"/>
      <use transform="translate(1452.958984 0.015625)" xlink:href="#DejaVuSans-61"/>
      <use transform="translate(1514.238281 0.015625)" xlink:href="#DejaVuSans-69"/>
      <use transform="translate(1542.021484 0.015625)" xlink:href="#DejaVuSans-6e"/>
      <use transform="translate(1605.400391 0.015625)" xlink:href="#DejaVuSans-29"/>
     </g>
    </g>
    <g id="line2d_33">
     <path d="M 233.37 241.621031 
L 251.37 241.621031 
" style="fill:none;stroke:#808080;stroke-dasharray:4.44,1.92;stroke-dashoffset:0;stroke-width:1.2;"/>
    </g>
    <g id="line2d_34">
     <g>
      <use style="fill:#808080;stroke:#808080;" x="242.37" xlink:href="#maa5e14314e" y="241.621031"/>
     </g>
    </g>
    <g id="text_18">
     <!-- DynamicViT -->
     <g transform="translate(258.57 244.771031)scale(0.09 -0.09)">
      <defs>
       <path d="M 1259 4147 
L 1259 519 
L 2022 519 
Q 2988 519 3436 956 
Q 3884 1394 3884 2338 
Q 3884 3275 3436 3711 
Q 2988 4147 2022 4147 
L 1259 4147 
z
M 628 4666 
L 1925 4666 
Q 3281 4666 3915 4102 
Q 4550 3538 4550 2338 
Q 4550 1131 3912 565 
Q 3275 0 1925 0 
L 628 0 
L 628 4666 
z
" id="DejaVuSans-44" transform="scale(0.015625)"/>
       <path d="M 1831 0 
L 50 4666 
L 709 4666 
L 2188 738 
L 3669 4666 
L 4325 4666 
L 2547 0 
L 1831 0 
z
" id="DejaVuSans-56" transform="scale(0.015625)"/>
      </defs>
      <use xlink:href="#DejaVuSans-44"/>
      <use x="77.001953" xlink:href="#DejaVuSans-79"/>
      <use x="136.181641" xlink:href="#DejaVuSans-6e"/>
      <use x="199.560547" xlink:href="#DejaVuSans-61"/>
      <use x="260.839844" xlink:href="#DejaVuSans-6d"/>
      <use x="358.251953" xlink:href="#DejaVuSans-69"/>
      <use x="386.035156" xlink:href="#DejaVuSans-63"/>
      <use x="441.015625" xlink:href="#DejaVuSans-56"/>
      <use x="507.173828" xlink:href="#DejaVuSans-69"/>
      <use x="534.957031" xlink:href="#DejaVuSans-54"/>
     </g>
    </g>
    <g id="line2d_35">
     <path d="M 233.37 254.831344 
L 251.37 254.831344 
" style="fill:none;stroke:#87ceeb;stroke-dasharray:1.5,2.475;stroke-dashoffset:0;stroke-width:1.5;"/>
    </g>
    <g id="line2d_36"/>
    <g id="text_19">
     <!-- DeiT$_{small}$ -->
     <g transform="translate(258.57 257.981344)scale(0.09 -0.09)">
      <defs>
       <path d="M 3200 3397 
L 3091 2853 
Q 2863 2978 2609 3040 
Q 2356 3103 2088 3103 
Q 1634 3103 1373 2948 
Q 1113 2794 1113 2528 
Q 1113 2219 1719 2053 
Q 1766 2041 1788 2034 
L 1972 1978 
Q 2547 1819 2739 1644 
Q 2931 1469 2931 1166 
Q 2931 609 2489 259 
Q 2047 -91 1331 -91 
Q 1053 -91 747 -37 
Q 441 16 72 128 
L 184 722 
Q 500 559 806 475 
Q 1113 391 1394 391 
Q 1816 391 2080 572 
Q 2344 753 2344 1031 
Q 2344 1331 1650 1516 
L 1591 1531 
L 1394 1581 
Q 956 1697 753 1886 
Q 550 2075 550 2369 
Q 550 2928 970 3256 
Q 1391 3584 2113 3584 
Q 2397 3584 2667 3537 
Q 2938 3491 3200 3397 
z
" id="DejaVuSans-Oblique-73" transform="scale(0.015625)"/>
       <path d="M 1172 4863 
L 1747 4863 
L 800 0 
L 225 0 
L 1172 4863 
z
" id="DejaVuSans-Oblique-6c" transform="scale(0.015625)"/>
      </defs>
      <use transform="translate(0 0.015625)" xlink:href="#DejaVuSans-44"/>
      <use transform="translate(77.001953 0.015625)" xlink:href="#DejaVuSans-65"/>
      <use transform="translate(138.525391 0.015625)" xlink:href="#DejaVuSans-69"/>
      <use transform="translate(166.308594 0.015625)" xlink:href="#DejaVuSans-54"/>
      <use transform="translate(228.349609 -16.390625)scale(0.7)" xlink:href="#DejaVuSans-Oblique-73"/>
      <use transform="translate(264.819336 -16.390625)scale(0.7)" xlink:href="#DejaVuSans-Oblique-6d"/>
      <use transform="translate(333.007812 -16.390625)scale(0.7)" xlink:href="#DejaVuSans-Oblique-61"/>
      <use transform="translate(375.90332 -16.390625)scale(0.7)" xlink:href="#DejaVuSans-Oblique-6c"/>
      <use transform="translate(395.351562 -16.390625)scale(0.7)" xlink:href="#DejaVuSans-Oblique-6c"/>
     </g>
    </g>
    <g id="line2d_37">
     <path d="M 233.37 268.041656 
L 251.37 268.041656 
" style="fill:none;stroke:#0000ff;stroke-linecap:square;stroke-width:1.2;"/>
    </g>
    <g id="line2d_38">
     <defs>
      <path d="M 0 3 
C 0.795609 3 1.55874 2.683901 2.12132 2.12132 
C 2.683901 1.55874 3 0.795609 3 0 
C 3 -0.795609 2.683901 -1.55874 2.12132 -2.12132 
C 1.55874 -2.683901 0.795609 -3 0 -3 
C -0.795609 -3 -1.55874 -2.683901 -2.12132 -2.12132 
C -2.683901 -1.55874 -3 -0.795609 -3 0 
C -3 0.795609 -2.683901 1.55874 -2.12132 2.12132 
C -1.55874 2.683901 -0.795609 3 0 3 
z
" id="m2413be5ace" style="stroke:#0000ff;"/>
     </defs>
     <g>
      <use style="fill:#0000ff;stroke:#0000ff;" x="242.37" xlink:href="#m2413be5ace" y="268.041656"/>
     </g>
    </g>
    <g id="text_20">
     <!-- STTABT (Approx. Att.) -->
     <g transform="translate(258.57 271.191656)scale(0.09 -0.09)">
      <defs>
       <path d="M 3513 3500 
L 2247 1797 
L 3578 0 
L 2900 0 
L 1881 1375 
L 863 0 
L 184 0 
L 1544 1831 
L 300 3500 
L 978 3500 
L 1906 2253 
L 2834 3500 
L 3513 3500 
z
" id="DejaVuSans-78" transform="scale(0.015625)"/>
       <path d="M 684 794 
L 1344 794 
L 1344 0 
L 684 0 
L 684 794 
z
" id="DejaVuSans-2e" transform="scale(0.015625)"/>
      </defs>
      <use xlink:href="#DejaVuSans-53"/>
      <use x="63.476562" xlink:href="#DejaVuSans-54"/>
      <use x="122.810547" xlink:href="#DejaVuSans-54"/>
      <use x="176.144531" xlink:href="#DejaVuSans-41"/>
      <use x="244.552734" xlink:href="#DejaVuSans-42"/>
      <use x="313.15625" xlink:href="#DejaVuSans-54"/>
      <use x="374.240234" xlink:href="#DejaVuSans-20"/>
      <use x="406.027344" xlink:href="#DejaVuSans-28"/>
      <use x="445.041016" xlink:href="#DejaVuSans-41"/>
      <use x="513.449219" xlink:href="#DejaVuSans-70"/>
      <use x="576.925781" xlink:href="#DejaVuSans-70"/>
      <use x="640.402344" xlink:href="#DejaVuSans-72"/>
      <use x="679.265625" xlink:href="#DejaVuSans-6f"/>
      <use x="737.322266" xlink:href="#DejaVuSans-78"/>
      <use x="796.501953" xlink:href="#DejaVuSans-2e"/>
      <use x="828.289062" xlink:href="#DejaVuSans-20"/>
      <use x="860.076172" xlink:href="#DejaVuSans-41"/>
      <use x="926.734375" xlink:href="#DejaVuSans-74"/>
      <use x="965.943359" xlink:href="#DejaVuSans-74"/>
      <use x="1005.152344" xlink:href="#DejaVuSans-2e"/>
      <use x="1036.939453" xlink:href="#DejaVuSans-29"/>
     </g>
    </g>
    <g id="line2d_39">
     <path d="M 233.37 281.251969 
L 251.37 281.251969 
" style="fill:none;stroke:#00ff00;stroke-linecap:square;stroke-width:1.2;"/>
    </g>
    <g id="line2d_40">
     <defs>
      <path d="M 0 3 
C 0.795609 3 1.55874 2.683901 2.12132 2.12132 
C 2.683901 1.55874 3 0.795609 3 0 
C 3 -0.795609 2.683901 -1.55874 2.12132 -2.12132 
C 1.55874 -2.683901 0.795609 -3 0 -3 
C -0.795609 -3 -1.55874 -2.683901 -2.12132 -2.12132 
C -2.683901 -1.55874 -3 -0.795609 -3 0 
C -3 0.795609 -2.683901 1.55874 -2.12132 2.12132 
C -1.55874 2.683901 -0.795609 3 0 3 
z
" id="mf5c48deeef" style="stroke:#00ff00;"/>
     </defs>
     <g>
      <use style="fill:#00ff00;stroke:#00ff00;" x="242.37" xlink:href="#mf5c48deeef" y="281.251969"/>
     </g>
    </g>
    <g id="text_21">
     <!-- STTABT (Actual Att.) -->
     <g transform="translate(258.57 284.401969)scale(0.09 -0.09)">
      <defs>
       <path d="M 603 4863 
L 1178 4863 
L 1178 0 
L 603 0 
L 603 4863 
z
" id="DejaVuSans-6c" transform="scale(0.015625)"/>
      </defs>
      <use xlink:href="#DejaVuSans-53"/>
      <use x="63.476562" xlink:href="#DejaVuSans-54"/>
      <use x="122.810547" xlink:href="#DejaVuSans-54"/>
      <use x="176.144531" xlink:href="#DejaVuSans-41"/>
      <use x="244.552734" xlink:href="#DejaVuSans-42"/>
      <use x="313.15625" xlink:href="#DejaVuSans-54"/>
      <use x="374.240234" xlink:href="#DejaVuSans-20"/>
      <use x="406.027344" xlink:href="#DejaVuSans-28"/>
      <use x="445.041016" xlink:href="#DejaVuSans-41"/>
      <use x="511.699219" xlink:href="#DejaVuSans-63"/>
      <use x="566.679688" xlink:href="#DejaVuSans-74"/>
      <use x="605.888672" xlink:href="#DejaVuSans-75"/>
      <use x="669.267578" xlink:href="#DejaVuSans-61"/>
      <use x="730.546875" xlink:href="#DejaVuSans-6c"/>
      <use x="758.330078" xlink:href="#DejaVuSans-20"/>
      <use x="790.117188" xlink:href="#DejaVuSans-41"/>
      <use x="856.775391" xlink:href="#DejaVuSans-74"/>
      <use x="895.984375" xlink:href="#DejaVuSans-74"/>
      <use x="935.193359" xlink:href="#DejaVuSans-2e"/>
      <use x="966.980469" xlink:href="#DejaVuSans-29"/>
     </g>
    </g>
    <g id="line2d_41">
     <path d="M 233.37 294.462281 
L 251.37 294.462281 
" style="fill:none;stroke:#000000;stroke-dasharray:4.44,1.92;stroke-dashoffset:0;stroke-width:1.2;"/>
    </g>
    <g id="line2d_42">
     <g>
      <use style="stroke:#000000;" x="242.37" xlink:href="#m1e9202841e" y="294.462281"/>
     </g>
    </g>
    <g id="text_22">
     <!-- Manual Top-k -->
     <g transform="translate(258.57 297.612281)scale(0.09 -0.09)">
      <defs>
       <path d="M 628 4666 
L 1569 4666 
L 2759 1491 
L 3956 4666 
L 4897 4666 
L 4897 0 
L 4281 0 
L 4281 4097 
L 3078 897 
L 2444 897 
L 1241 4097 
L 1241 0 
L 628 0 
L 628 4666 
z
" id="DejaVuSans-4d" transform="scale(0.015625)"/>
      </defs>
      <use xlink:href="#DejaVuSans-4d"/>
      <use x="86.279297" xlink:href="#DejaVuSans-61"/>
      <use x="147.558594" xlink:href="#DejaVuSans-6e"/>
      <use x="210.9375" xlink:href="#DejaVuSans-75"/>
      <use x="274.316406" xlink:href="#DejaVuSans-61"/>
      <use x="335.595703" xlink:href="#DejaVuSans-6c"/>
      <use x="363.378906" xlink:href="#DejaVuSans-20"/>
      <use x="395.166016" xlink:href="#DejaVuSans-54"/>
      <use x="439.25" xlink:href="#DejaVuSans-6f"/>
      <use x="500.431641" xlink:href="#DejaVuSans-70"/>
      <use x="563.908203" xlink:href="#DejaVuSans-2d"/>
      <use x="599.992188" xlink:href="#DejaVuSans-6b"/>
     </g>
    </g>
   </g>
   <g id="line2d_43">
    <path clip-path="url(#p49e6ce0124)" d="M 154.845697 346.6 
L 167.052387 227.43718 
L 221.141861 110.753819 
L 263.909171 78.413179 
L 334.062364 57.779086 
L 377.684539 53.436895 
" style="fill:none;stroke:#0000ff;stroke-linecap:square;stroke-width:1.2;"/>
    <g clip-path="url(#p49e6ce0124)">
     <use style="fill:#0000ff;stroke:#0000ff;" x="99.133002" xlink:href="#m2413be5ace" y="890.472403"/>
     <use style="fill:#0000ff;stroke:#0000ff;" x="167.052387" xlink:href="#m2413be5ace" y="227.43718"/>
     <use style="fill:#0000ff;stroke:#0000ff;" x="221.141861" xlink:href="#m2413be5ace" y="110.753819"/>
     <use style="fill:#0000ff;stroke:#0000ff;" x="263.909171" xlink:href="#m2413be5ace" y="78.413179"/>
     <use style="fill:#0000ff;stroke:#0000ff;" x="334.062364" xlink:href="#m2413be5ace" y="57.779086"/>
     <use style="fill:#0000ff;stroke:#0000ff;" x="377.684539" xlink:href="#m2413be5ace" y="53.436895"/>
    </g>
   </g>
   <g id="line2d_44">
    <path clip-path="url(#p49e6ce0124)" d="M 143.205638 346.6 
L 164.120343 165.29174 
L 214.653132 90.883952 
L 255.599425 68.617196 
L 326.336572 54.722184 
L 373.666712 53.50637 
" style="fill:none;stroke:#00ff00;stroke-linecap:square;stroke-width:1.2;"/>
    <g clip-path="url(#p49e6ce0124)">
     <use style="fill:#00ff00;stroke:#00ff00;" x="100.002309" xlink:href="#mf5c48deeef" y="721.126948"/>
     <use style="fill:#00ff00;stroke:#00ff00;" x="164.120343" xlink:href="#mf5c48deeef" y="165.29174"/>
     <use style="fill:#00ff00;stroke:#00ff00;" x="214.653132" xlink:href="#mf5c48deeef" y="90.883952"/>
     <use style="fill:#00ff00;stroke:#00ff00;" x="255.599425" xlink:href="#mf5c48deeef" y="68.617196"/>
     <use style="fill:#00ff00;stroke:#00ff00;" x="326.336572" xlink:href="#mf5c48deeef" y="54.722184"/>
     <use style="fill:#00ff00;stroke:#00ff00;" x="373.666712" xlink:href="#mf5c48deeef" y="53.50637"/>
    </g>
   </g>
   <g id="line2d_45">
    <path clip-path="url(#p49e6ce0124)" d="M 73.832727 266.794764 
L 89.042188 233.863586 
L 107.670112 153.098828 
L 122.699873 127.670956 
L 143.978971 108.530576 
L 196.296481 81.157403 
" style="fill:none;stroke:#ff0000;stroke-linecap:square;stroke-width:1.2;"/>
    <g clip-path="url(#p49e6ce0124)">
     <use style="fill:#ff0000;stroke:#ff0000;stroke-linejoin:miter;" x="73.832727" xlink:href="#m69c8fdb9cd" y="266.794764"/>
     <use style="fill:#ff0000;stroke:#ff0000;stroke-linejoin:miter;" x="89.042188" xlink:href="#m69c8fdb9cd" y="233.863586"/>
     <use style="fill:#ff0000;stroke:#ff0000;stroke-linejoin:miter;" x="107.670112" xlink:href="#m69c8fdb9cd" y="153.098828"/>
     <use style="fill:#ff0000;stroke:#ff0000;stroke-linejoin:miter;" x="122.699873" xlink:href="#m69c8fdb9cd" y="127.670956"/>
     <use style="fill:#ff0000;stroke:#ff0000;stroke-linejoin:miter;" x="143.978971" xlink:href="#m69c8fdb9cd" y="108.530576"/>
     <use style="fill:#ff0000;stroke:#ff0000;stroke-linejoin:miter;" x="196.296481" xlink:href="#m69c8fdb9cd" y="81.157403"/>
    </g>
   </g>
  </g>
 </g>
 <defs>
  <clipPath id="p49e6ce0124">
   <rect height="266.112" width="357.12" x="57.6" y="41.472"/>
  </clipPath>
 </defs>
</svg>
